<?xml version="1.0" encoding="UTF-8"?>
<svg width="14px" height="11px" viewBox="0 0 14 11" version="1.1" xmlns="http://www.w3.org/2000/svg" xmlns:xlink="http://www.w3.org/1999/xlink">
    <!-- Generator: Sketch 63.1 (92452) - https://sketch.com -->
    <title>Path@1x</title>
    <desc>Created with Sketch.</desc>
    <g id="Maquette" stroke="none" stroke-width="1" fill="none" fill-rule="evenodd">
        <g id="Accueil-confirmation" transform="translate(-466.000000, -283.000000)" fill="#000000" fill-rule="nonzero">
            <g id="Besoins" transform="translate(433.000000, 182.000000)">
                <g id="check" transform="translate(33.218500, 101.500000)">
                    <path d="M12.974346,1.9419665 C12.974346,1.732703 12.8906405,1.523439 12.7399705,1.3727695 L11.6015765,0.234375 C11.4509065,0.0837055 11.241643,0 11.0323795,0 C10.8231155,0 10.613852,0.0837055 10.463182,0.234375 L4.972104,5.7338235 L2.5111635,3.2645125 C2.360494,3.113843 2.1512305,3.0301375 1.9419665,3.0301375 C1.732703,3.0301375 1.5234395,3.113843 1.3727695,3.2645125 L0.2343755,4.402907 C0.0837055,4.5535765 0,4.7628405 0,4.972104 C0,5.1813675 0.0837055,5.390631 0.2343755,5.541301 L3.264513,8.5714385 L4.402907,9.709833 C4.553577,9.8605025 4.7628405,9.944208 4.972104,9.944208 C5.181368,9.944208 5.3906315,9.8605025 5.5413015,9.709833 L6.6796955,8.5714385 L12.7399705,2.5111635 C12.8906405,2.3604935 12.974346,2.15123 12.974346,1.9419665 Z" id="Path"></path>
                </g>
            </g>
        </g>
    </g>
</svg>