<?xml version="1.0" encoding="UTF-8"?>
<svg width="352px" height="320px" viewBox="0 0 352 320" version="1.1" xmlns="http://www.w3.org/2000/svg" xmlns:xlink="http://www.w3.org/1999/xlink">
    <!-- Generator: Sketch 63.1 (92452) - https://sketch.com -->
    <title>Mascotte/Face/1@1x</title>
    <desc>Created with Sketch.</desc>
    <defs>
        <polygon id="path-1" points="0.57888 0.407641884 108.3786 0.407641884 108.3786 96.09996 0.57888 96.09996"></polygon>
        <polygon id="path-3" points="0 0.051585899 109.267637 0.051585899 109.267637 72.90522 0 72.90522"></polygon>
        <polygon id="path-5" points="0.39072 0.07608 116.01552 0.07608 116.01552 82.8 0.39072 82.8"></polygon>
        <path d="M6.4824,9.648 C13.6356,11.0256 15.8712,4.4916 15.8712,4.4916 L15.8712,4.4916 L0.0396,0.5466 C0.0396,0.5466 -0.6696,8.271 6.4824,9.648 L6.4824,9.648 Z" id="path-7"></path>
        <path d="M6.4824,9.648 C13.6356,11.0256 15.8712,4.4916 15.8712,4.4916 L15.8712,4.4916 L0.0396,0.5466 C0.0396,0.5466 -0.6696,8.271 6.4824,9.648" id="path-9"></path>
    </defs>
    <g id="Mascotte/Face/1" stroke="none" stroke-width="1" fill="none" fill-rule="evenodd">
        <g id="Group-53" transform="translate(33.500000, 11.500000)">
            <g id="Group-36" transform="translate(0.000000, 0.535800)">
                <g id="Group-3" transform="translate(175.800000, 195.600000)">
                    <mask id="mask-2" fill="white">
                        <use xlink:href="#path-1"></use>
                    </mask>
                    <g id="Clip-2"></g>
                    <path d="M98.11428,11.48076 C75.32148,-10.22064 37.67568,4.57956 0.57888,16.87596 L0.57888,23.52396 C21.08148,38.43516 28.13748,69.71916 30.21528,96.09996 C94.37988,83.30196 126.20388,38.22456 98.11428,11.48076" id="Fill-1" fill="#F2F2F2" mask="url(#mask-2)"></path>
                </g>
                <g id="Group-6" transform="translate(0.000000, 214.800000)">
                    <mask id="mask-4" fill="white">
                        <use xlink:href="#path-3"></use>
                    </mask>
                    <g id="Clip-5"></g>
                    <path d="M108.00666,8.92722 C63.13866,5.49522 11.80206,-13.17618 1.08606,16.88382 C-7.42974,40.77162 35.22666,62.09142 90.39066,72.90522 C98.35626,51.06402 107.24226,29.41002 108.86886,22.09002 C109.66986,18.48582 109.20426,13.88682 108.00666,8.92722" id="Fill-4" fill="#F2F2F2" mask="url(#mask-4)"></path>
                </g>
                <path d="M161.9082,0.06432 C164.4324,1.90992 166.23,6.04452 166.23,6.04452 L171.7878,2.45412 L172.848,8.98452 C172.848,8.98452 177.1212,7.54752 180.1806,8.18352 C180.1806,8.18352 176.8212,9.86412 175.3746,12.35592 C174.6402,13.62192 173.6886,16.65312 175.4256,19.00812 L175.4952,19.07832 C181.5222,25.95012 183.39,35.95032 179.427,44.84832 C173.9982,57.03492 159.7158,62.51652 147.5238,57.08472 C135.333,51.65652 129.852,37.37232 135.2808,25.18212 C139.2114,16.36092 147.7848,11.07972 156.8388,10.87812 C156.9216,10.87512 157.008,10.87152 157.0938,10.86672 L157.0632,10.84932 C159.9762,10.56012 161.5878,7.82412 162.0348,6.42792 C162.9144,3.68412 161.9082,0.06432 161.9082,0.06432" id="Fill-7" fill="#333333"></path>
                <path d="M154.42464,33.64152 C177.19764,38.97252 191.33724,61.75512 186.00564,84.52872 C180.67464,107.30172 157.89204,121.44072 135.11904,116.10972 C112.34604,110.77872 98.20644,87.99552 103.53744,65.22312 C108.86844,42.45012 131.65164,28.30992 154.42464,33.64152" id="Fill-9" fill="#333333"></path>
                <path d="M127.96722,103.20222 C127.96722,103.20222 130.63182,136.95762 110.20122,139.62222 C89.77062,142.28742 127.96722,202.69062 137.73882,201.80262 C147.50982,200.91462 165.27582,136.06902 165.27582,136.06902 C165.27582,136.06902 142.18002,120.07962 150.17442,105.86682 L127.96722,103.20222 Z" id="Fill-11" fill="#BA9579"></path>
                <path d="M249.21936,251.99112 C249.21936,251.99112 275.86776,274.19892 272.31456,281.30472 C268.76136,288.41112 245.66616,273.31032 243.88956,255.54432 L249.21936,251.99112 Z" id="Fill-13" fill="#BA9579"></path>
                <path d="M129.90546,223.86024 C144.46926,222.62184 160.37286,217.78164 176.37906,212.47584 L176.37906,196.91724 C176.37906,196.91724 183.48546,190.69884 179.93226,174.70944 C179.93226,174.70944 195.03366,147.17244 186.15006,141.84324 C177.26766,136.51344 156.86286,128.70204 156.86286,128.70204 C156.86286,128.70204 158.61366,168.49164 139.95906,177.37404 C139.95906,177.37404 116.02686,158.40804 122.21886,131.91564 C122.21886,131.91564 98.20926,132.96024 88.43826,142.73124 C78.66726,152.50224 91.10286,185.36904 91.10286,185.36904 C91.10286,185.36904 103.89126,206.68524 108.00666,223.72704 C115.56426,224.30484 122.94006,224.45304 129.90546,223.86024" id="Fill-15" fill="#93626D"></path>
                <g id="Group-19" transform="translate(90.000000, 212.400000)">
                    <mask id="mask-6" fill="white">
                        <use xlink:href="#path-5"></use>
                    </mask>
                    <g id="Clip-18"></g>
                    <path d="M86.37912,6.72408 L86.37912,0.07608 C70.37292,5.38188 54.46932,10.22148 39.90552,11.46048 C32.94012,12.05328 25.56432,11.90508 18.00672,11.32728 C19.20432,16.28688 19.66992,20.88588 18.86892,24.49008 C17.24232,31.81008 8.35632,53.46348 0.39072,75.30528 C26.33592,80.39028 55.04832,83.15268 82.50432,82.76388 C94.44192,82.59468 105.64932,81.36708 116.01552,79.30008 C113.93772,52.91928 106.88172,21.63528 86.37912,6.72408" id="Fill-17" fill="#93626D" mask="url(#mask-6)"></path>
                </g>
                <path d="M181.7088,142.7313 C181.7088,142.7313 194.1456,142.7313 199.4748,157.8321 C204.8046,172.9329 235.8954,224.4537 235.8954,224.4537 L253.6608,251.9913 L241.2246,266.2035 L206.5812,227.1189 L173.7144,172.9329 L181.7088,142.7313 Z" id="Fill-20" fill="#8BC79C"></path>
                <path d="M147.49734,55.03056 C160.65054,57.35676 168.85974,73.11816 165.83274,90.23376 C162.80574,107.34936 149.68914,119.33916 136.53534,117.01296 C123.38214,114.68676 115.17294,98.92536 118.19994,81.80976 C121.22694,64.69356 134.34414,52.70436 147.49734,55.03056" id="Fill-22" fill="#C19B7C"></path>
                <path d="M152.38908,55.48932 C169.11588,59.40492 181.37628,68.13372 179.77188,74.98572 C178.16808,81.83772 163.30728,84.21852 146.58048,80.30232 C129.85308,76.38672 117.59388,67.65732 119.19768,60.80532 C120.80148,53.95332 135.66228,51.57372 152.38908,55.48932" id="Fill-24" fill="#333333"></path>
                <path d="M147.68166,89.90436 C147.18186,91.24956 147.23106,92.50896 147.79146,92.71716 C148.35186,92.92596 149.21106,92.00436 149.71146,90.65916 C150.21126,89.31396 150.16266,88.05456 149.60226,87.84576 C149.04126,87.63816 148.18146,88.55976 147.68166,89.90436" id="Fill-26" fill="#333333"></path>
                <polygon id="Fill-28" fill="#333333" points="151.41024 86.45616 149.24904 84.28656 150.09924 83.44056 152.26044 85.61016"></polygon>
                <path d="M134.40462,86.47722 C134.19102,87.89622 133.53882,88.97442 132.94722,88.88622 C132.35562,88.79682 132.04962,87.57402 132.26322,86.15502 C132.47682,84.73602 133.12902,83.65782 133.72062,83.74662 C134.31162,83.83602 134.61762,85.05822 134.40462,86.47722" id="Fill-30" fill="#333333"></path>
                <polygon id="Fill-32" fill="#333333" points="132.66378 81.42882 132.52338 80.23662 135.56418 79.87722 135.70518 81.06942"></polygon>
                <path d="M131.71164,98.56398 L145.84704,102.08658 C146.29224,102.19758 146.52024,102.69378 146.31024,103.10118 C145.43424,104.80518 142.84584,108.51918 137.28264,107.44818 C131.67384,106.36818 130.89924,101.38398 130.82664,99.28398 C130.81044,98.80878 131.25024,98.44938 131.71164,98.56398" id="Fill-34" fill="#333333"></path>
            </g>
            <g id="Group-43" transform="translate(130.800000, 98.335800)">
                <g id="Group-39">
                    <mask id="mask-8" fill="white">
                        <use xlink:href="#path-7"></use>
                    </mask>
                    <g id="Clip-38"></g>
                    <path d="M0.56358,0.0696 C0.56358,0.0696 -0.05502,1.7388 3.66498,3.0708 C7.38498,4.4034 14.91918,6.6858 15.82278,3.8724 L0.56358,0.0696 Z" id="Fill-37" fill="#FFFFFF" mask="url(#mask-8)"></path>
                </g>
                <g id="Group-42">
                    <mask id="mask-10" fill="white">
                        <use xlink:href="#path-9"></use>
                    </mask>
                    <g id="Clip-41"></g>
                    <path d="M2.23818,7.9827 L2.52558,9.2697 L9.01038,10.8855 L10.82178,10.1211 C9.86718,9.0729 9.10458,8.8833 6.67218,8.0745 C4.23978,7.2663 2.23818,7.9827 2.23818,7.9827" id="Fill-40" fill="#FFFFFF" mask="url(#mask-10)"></path>
                </g>
            </g>
            <g id="Group-52" transform="translate(39.000000, 125.935800)">
                <path d="M86.32434,0.12234 C86.32434,0.12234 61.63914,6.66354 56.83914,9.06354 C52.03914,11.46354 47.23914,8.46354 45.43914,14.46354 C43.63914,20.46354 43.22454,24.54894 43.22454,24.54894 L52.10274,59.96874 C52.10274,59.96874 62.18754,105.32334 61.01334,122.89374 L58.03914,133.26354 C58.03914,133.26354 59.83914,137.46354 70.03914,135.06354 C80.23914,132.66354 92.83914,128.46354 92.83914,128.46354 L77.83914,63.66354 L86.32434,0.12234 Z" id="Fill-44" fill="#8BC79C"></path>
                <path d="M54.76806,100.83096 C54.76806,100.83096 58.32126,126.59136 68.98026,126.59136 C79.64046,126.59136 61.87446,97.27716 61.87446,97.27716 L54.76806,100.83096 Z" id="Fill-46" fill="#BA9579"></path>
                <path d="M54.76806,17.3313 C54.76806,17.3313 43.21986,15.5547 31.67226,32.4321 C20.12466,49.3095 -10.07754,75.9585 4.13526,89.2827 C18.34806,102.6075 56.54466,111.4905 56.54466,111.4905 L65.42766,95.5005 L27.23046,76.8465 L59.20926,52.8627 L54.76806,17.3313 Z" id="Fill-48" fill="#8BC79C"></path>
                <path d="M115.10706,0.12234 C115.10706,0.12234 134.23926,7.26354 140.23926,9.06354 C146.23926,10.86354 147.43926,13.86354 149.83926,14.46354 C152.23926,15.06354 154.03926,22.26354 153.43926,24.66354 C152.83926,27.06354 143.23926,94.86354 143.23926,94.86354 L161.83926,123.06354 C161.83926,123.06354 161.83926,127.26354 156.43926,126.06354 C151.03926,124.86354 121.03926,123.06354 121.03926,123.06354 L120.43926,63.06354 L115.10706,0.12234 Z" id="Fill-50" fill="#8BC79C"></path>
            </g>
        </g>
    </g>
</svg>