<svg width="352" height="320" viewBox="0 0 352 320" fill="none" xmlns="http://www.w3.org/2000/svg">
<mask id="mask0" mask-type="alpha" maskUnits="userSpaceOnUse" x="209" y="208" width="109" height="96">
<path d="M209.879 208.043H317.679V303.736H209.879V208.043Z" fill="white"/>
</mask>
<g mask="url(#mask0)">
<path fill-rule="evenodd" clip-rule="evenodd" d="M307.414 219.117C284.622 197.415 246.976 212.215 209.879 224.512V231.16C230.382 246.071 237.438 277.355 239.515 303.736C303.68 290.938 335.504 245.86 307.414 219.117Z" fill="#F2F2F2"/>
</g>
<mask id="mask1" mask-type="alpha" maskUnits="userSpaceOnUse" x="33" y="226" width="110" height="74">
<path d="M33.5 226.887H142.768V299.741H33.5V226.887Z" fill="white"/>
</mask>
<g mask="url(#mask1)">
<path fill-rule="evenodd" clip-rule="evenodd" d="M141.507 235.763C96.6389 232.331 45.3023 213.66 34.5863 243.72C26.0705 267.607 68.7269 288.927 123.891 299.741C131.856 277.9 140.742 256.246 142.369 248.926C143.17 245.322 142.704 240.723 141.507 235.763Z" fill="#F2F2F2"/>
</g>
<path fill-rule="evenodd" clip-rule="evenodd" d="M195.408 12.1001C197.933 13.9457 199.73 18.0803 199.73 18.0803L205.288 14.4899L206.348 21.0203C206.348 21.0203 210.621 19.5833 213.681 20.2193C213.681 20.2193 210.321 21.8999 208.875 24.3917C208.14 25.6577 207.189 28.6889 208.926 31.0439L208.995 31.1141C215.022 37.9859 216.89 47.9861 212.927 56.8841C207.498 69.0707 193.216 74.5523 181.024 69.1205C168.833 63.6923 163.352 49.4081 168.781 37.2179C172.712 28.3967 181.285 23.1155 190.339 22.9139C190.422 22.9109 190.508 22.9073 190.594 22.9025L190.563 22.8851C193.476 22.5959 195.088 19.8599 195.535 18.4637C196.415 15.7199 195.408 12.1001 195.408 12.1001Z" fill="#333333"/>
<path fill-rule="evenodd" clip-rule="evenodd" d="M187.925 45.6773C210.698 51.0083 224.837 73.7909 219.506 96.5645C214.175 119.337 191.392 133.476 168.619 128.145C145.846 122.814 131.706 100.031 137.037 77.2589C142.368 54.4859 165.152 40.3457 187.925 45.6773Z" fill="#333333"/>
<path fill-rule="evenodd" clip-rule="evenodd" d="M161.467 115.238C161.467 115.238 164.132 148.993 143.701 151.658C123.271 154.323 161.467 214.726 171.239 213.838C181.01 212.95 198.776 148.105 198.776 148.105C198.776 148.105 175.68 132.115 183.674 117.903L161.467 115.238Z" fill="#BA9579"/>
<path fill-rule="evenodd" clip-rule="evenodd" d="M282.719 264.027C282.719 264.027 309.368 286.235 305.815 293.34C302.261 300.447 279.166 285.346 277.39 267.58L282.719 264.027Z" fill="#BA9579"/>
<path fill-rule="evenodd" clip-rule="evenodd" d="M163.405 235.896C177.969 234.658 193.873 229.817 209.879 224.512V208.953C209.879 208.953 216.985 202.735 213.432 186.745C213.432 186.745 228.534 159.208 219.65 153.879C210.768 148.549 190.363 140.738 190.363 140.738C190.363 140.738 192.114 180.527 173.459 189.41C173.459 189.41 149.527 170.444 155.719 143.951C155.719 143.951 131.709 144.996 121.938 154.767C112.167 164.538 124.603 197.405 124.603 197.405C124.603 197.405 137.391 218.721 141.507 235.763C149.064 236.341 156.44 236.489 163.405 235.896Z" fill="#EA4F51"/>
<mask id="mask2" mask-type="alpha" maskUnits="userSpaceOnUse" x="123" y="224" width="117" height="84">
<path d="M123.891 224.512H239.515V307.236H123.891V224.512Z" fill="white"/>
</mask>
<g mask="url(#mask2)">
<path fill-rule="evenodd" clip-rule="evenodd" d="M209.879 231.16V224.512C193.873 229.818 177.969 234.657 163.405 235.896C156.44 236.489 149.064 236.341 141.507 235.763C142.704 240.723 143.17 245.322 142.369 248.926C140.742 256.246 131.856 277.899 123.891 299.741C149.836 304.826 178.548 307.588 206.004 307.2C217.942 307.03 229.149 305.803 239.515 303.736C237.438 277.355 230.382 246.071 209.879 231.16Z" fill="#EA4F51"/>
</g>
<path fill-rule="evenodd" clip-rule="evenodd" d="M215.209 154.767C215.209 154.767 227.646 154.767 232.975 169.868C238.305 184.969 269.395 236.49 269.395 236.49L287.161 264.027L274.725 278.239L240.081 239.155L207.214 184.969L215.209 154.767Z" fill="#F8CACA"/>
<path fill-rule="evenodd" clip-rule="evenodd" d="M180.998 67.0663C194.151 69.3925 202.36 85.1539 199.333 102.27C196.306 119.385 183.189 131.375 170.036 129.049C156.882 126.723 148.673 110.961 151.7 93.8455C154.727 76.7293 167.844 64.7401 180.998 67.0663Z" fill="#C19B7C"/>
<path fill-rule="evenodd" clip-rule="evenodd" d="M185.889 67.5251C202.616 71.4407 214.876 80.1695 213.272 87.0215C211.668 93.8735 196.807 96.2543 180.08 92.3381C163.353 88.4225 151.094 79.6931 152.698 72.8411C154.301 65.9891 169.162 63.6095 185.889 67.5251Z" fill="#333333"/>
<path fill-rule="evenodd" clip-rule="evenodd" d="M181.182 101.94C180.682 103.285 180.731 104.545 181.292 104.753C181.852 104.962 182.711 104.04 183.212 102.695C183.711 101.35 183.663 100.09 183.102 99.8815C182.541 99.6739 181.682 100.595 181.182 101.94Z" fill="#333333"/>
<path fill-rule="evenodd" clip-rule="evenodd" d="M184.91 98.4919L182.749 96.3223L183.599 95.4763L185.76 97.6459L184.91 98.4919Z" fill="#333333"/>
<path fill-rule="evenodd" clip-rule="evenodd" d="M167.905 98.5131C167.691 99.9321 167.039 101.01 166.447 100.922C165.856 100.833 165.55 99.6099 165.763 98.1909C165.977 96.7719 166.629 95.6937 167.221 95.7825C167.812 95.8719 168.118 97.0941 167.905 98.5131Z" fill="#333333"/>
<path fill-rule="evenodd" clip-rule="evenodd" d="M166.164 93.4646L166.023 92.2724L169.064 91.913L169.205 93.1052L166.164 93.4646Z" fill="#333333"/>
<path fill-rule="evenodd" clip-rule="evenodd" d="M165.212 110.6L179.347 114.122C179.792 114.233 180.02 114.73 179.81 115.137C178.934 116.841 176.346 120.555 170.783 119.484C165.174 118.404 164.399 113.42 164.327 111.32C164.31 110.845 164.75 110.485 165.212 110.6Z" fill="#333333"/>
<mask id="mask3" mask-type="alpha" maskUnits="userSpaceOnUse" x="164" y="110" width="17" height="10">
<path d="M170.783 119.484C177.936 120.861 180.171 114.327 180.171 114.327L164.34 110.382C164.34 110.382 163.631 118.107 170.783 119.484Z" fill="white"/>
</mask>
<g mask="url(#mask3)">
<path fill-rule="evenodd" clip-rule="evenodd" d="M164.864 109.905C164.864 109.905 164.245 111.574 167.965 112.906C171.685 114.239 179.219 116.521 180.123 113.708L164.864 109.905Z" fill="white"/>
</g>
<mask id="mask4" mask-type="alpha" maskUnits="userSpaceOnUse" x="164" y="110" width="17" height="10">
<path d="M170.783 119.484C177.936 120.861 180.171 114.327 180.171 114.327L164.34 110.382C164.34 110.382 163.631 118.107 170.783 119.484Z" fill="white"/>
</mask>
<g mask="url(#mask4)">
<path fill-rule="evenodd" clip-rule="evenodd" d="M166.538 117.818L166.825 119.105L173.31 120.721L175.122 119.957C174.167 118.909 173.404 118.719 170.972 117.91C168.54 117.102 166.538 117.818 166.538 117.818Z" fill="white"/>
</g>
<path fill-rule="evenodd" clip-rule="evenodd" d="M158.824 137.558C158.824 137.558 134.139 144.099 129.339 146.499C124.539 148.899 119.739 145.899 117.939 151.899C116.139 157.899 115.725 161.985 115.725 161.985L124.603 197.405C124.603 197.405 134.688 242.759 133.513 260.33L130.539 270.699C130.539 270.699 132.339 274.899 142.539 272.499C152.739 270.099 165.339 265.899 165.339 265.899L150.339 201.099L158.824 137.558Z" fill="#F8CACA"/>
<path fill-rule="evenodd" clip-rule="evenodd" d="M127.268 238.267C127.268 238.267 130.821 264.027 141.48 264.027C152.14 264.027 134.374 234.713 134.374 234.713L127.268 238.267Z" fill="#BA9579"/>
<path fill-rule="evenodd" clip-rule="evenodd" d="M127.268 154.767C127.268 154.767 115.72 152.991 104.172 169.868C92.6248 186.745 62.4226 213.394 76.6354 226.719C90.8482 240.043 129.045 248.926 129.045 248.926L137.928 232.936L99.7306 214.282L131.709 190.299L127.268 154.767Z" fill="#F8CACA"/>
<path fill-rule="evenodd" clip-rule="evenodd" d="M187.607 137.558C187.607 137.558 206.74 144.699 212.74 146.499C218.74 148.299 219.94 151.299 222.34 151.899C224.74 152.499 226.54 159.699 225.94 162.099C225.34 164.499 215.74 232.299 215.74 232.299L234.34 260.499C234.34 260.499 234.34 264.699 228.94 263.499C223.54 262.299 193.54 260.499 193.54 260.499L192.94 200.499L187.607 137.558Z" fill="#F8CACA"/>
</svg>
