<?xml version="1.0" encoding="UTF-8"?>
<svg width="352px" height="320px" viewBox="0 0 352 320" version="1.1" xmlns="http://www.w3.org/2000/svg" xmlns:xlink="http://www.w3.org/1999/xlink">
    <!-- Generator: Sketch 63.1 (92452) - https://sketch.com -->
    <title>Mascotte/Profil/1@1x</title>
    <desc>Created with Sketch.</desc>
    <defs>
        <polygon id="path-1" points="0.056012399 0.4794 52.60974 0.4794 52.60974 57.6068468 0.056012399 57.6068468"></polygon>
        <path d="M200.7822,0.4314 C132.6234,0.6312 3.4764,58.5786 0.5202,91.6176 L0.5202,91.6176 C0.4482,92.421 0.410995725,93.219 0.410995725,94.011 L0.410995725,94.011 L0.410995725,94.0332 C0.3888,133.4136 86.8368,158.5884 161.4522,140.4048 L161.4522,140.4048 C237.582,121.8528 272.5062,49.404 236.1792,10.8006 L236.1792,10.8006 C229.401,3.5976 217.0788,0.4776 201.489,0.4314 L201.489,0.4314 L200.7822,0.4314 Z" id="path-3"></path>
        <polygon id="path-5" points="0.000127516196 0.521981111 281.9538 0.521981111 281.9538 138 0.000127516196 138"></polygon>
        <path d="M13.0896,0.1536 L2.16,2.3388 L0.9336,2.5848 C0.567,2.6574 0.3618,3.0516 0.5178,3.3918 L0.5178,3.3918 C1.23,4.9572 3.4002,8.6844 7.7028,8.1468 L7.7028,8.1468 C12.8244,7.506 13.6554,2.6544 13.7844,0.762 L13.7844,0.762 C13.8078,0.4194 13.5342,0.1422 13.2066,0.1422 L13.2066,0.1422 C13.1682,0.1422 13.1292,0.1458 13.0896,0.1536" id="path-7"></path>
    </defs>
    <g id="Mascotte/Profil/1" stroke="none" stroke-width="1" fill="none" fill-rule="evenodd">
        <g id="Group-33" transform="translate(35.000000, 0.000000)">
            <g id="Group-3" transform="translate(142.200000, 0.120600)">
                <mask id="mask-2" fill="white">
                    <use xlink:href="#path-1"></use>
                </mask>
                <g id="Clip-2"></g>
                <path d="M36.69714,0.47934 C38.72874,2.85714 39.52614,7.29414 39.52614,7.29414 L45.76074,5.08014 L45.28974,11.67894 C45.28974,11.67894 49.77894,11.26374 52.60974,12.58794 C52.60974,12.58794 48.95454,13.44894 46.97274,15.54114 C45.96594,16.60374 44.34234,19.33494 45.49074,22.02654 L45.54174,22.11114 C49.82634,30.18534 49.34094,40.34634 43.43634,48.09294 C35.34834,58.70334 20.18694,60.74994 9.57294,52.65774 C-1.04046,44.56854 -3.08646,29.40654 5.00274,18.79314 C10.85874,11.11434 20.41734,7.94814 29.27454,9.83634 C29.35614,9.85194 29.44134,9.86814 29.52534,9.88374 L29.49954,9.85974 C32.40114,10.24914 34.59894,7.95714 35.35554,6.70194 C36.84294,4.23414 36.69714,0.47934 36.69714,0.47934" id="Fill-1" fill="#333333" mask="url(#mask-2)"></path>
            </g>
            <g id="Group-6" transform="translate(14.400000, 148.320600)">
                <mask id="mask-4" fill="white">
                    <use xlink:href="#path-3"></use>
                </mask>
                <g id="Clip-5"></g>
                <polygon id="Fill-4" fill="#F2F2F2" mask="url(#mask-4)" points="-2.2338 149.0706 253.2576 149.0706 253.2576 -2.214 -2.2338 -2.214"></polygon>
            </g>
            <g id="Group-18" transform="translate(0.000000, 22.920600)">
                <path d="M107.35476,43.10334 C99.32676,58.06614 100.28076,96.02154 110.65596,98.69574 C114.79296,99.76254 123.60756,97.15014 132.57756,91.74294 L126.94776,131.57874 L160.19556,131.57874 L148.75056,78.22914 C155.13336,70.73634 159.45336,61.55394 158.73156,51.26514 C156.65136,21.61794 115.38216,28.14054 107.35476,43.10334" id="Fill-7" fill="#BA9579"></path>
                <path d="M105.35964,43.1871 C111.71844,44.3805 124.52364,50.4513 134.73444,59.1591 C135.94164,58.5195 137.32524,58.1565 138.79704,58.1565 C143.50704,58.1565 147.32544,61.8777 147.32544,66.4683 C147.32544,68.3421 146.69004,70.0713 145.61664,71.4609 C147.63744,74.7927 149.01684,78.2919 149.46864,81.8895 C156.47304,81.8895 205.11564,47.0121 168.61344,12.8535 C131.57064,-21.8097 88.24164,23.9049 105.35964,43.1871" id="Fill-9" fill="#333333"></path>
                <g id="Group-13" transform="translate(0.000000, 158.400000)">
                    <mask id="mask-6" fill="white">
                        <use xlink:href="#path-5"></use>
                    </mask>
                    <g id="Clip-12"></g>
                    <path d="M254.55282,109.60842 C256.73142,112.56222 270.16902,120.17082 279.26442,124.23342 C282.91542,125.86482 282.13122,129.04422 281.06082,130.06182 C272.35122,138.33582 264.43182,132.20022 255.09162,129.80982 C244.85922,127.19082 248.04762,139.73502 239.96202,137.79522 C241.25082,132.06222 244.74042,121.17582 241.00002,115.23642 C239.33802,112.59582 227.05422,89.27682 204.14802,45.27762 L226.92462,40.61982 C242.37162,82.58442 251.58162,105.58062 254.55282,109.60842 M3.38262,0.84522 C9.95322,4.61382 16.76562,10.12122 23.82102,17.36802 L64.09662,35.59842 L51.23682,52.57962 L21.07242,28.74282 C6.00642,25.89042 -0.98118,23.44002 0.11082,21.39162 C1.74822,18.31902 5.89302,20.40402 7.32462,18.51522 C8.70042,16.69782 5.48862,11.23122 2.05542,6.02082 L1.64202,5.39682 C-1.93878,0.00522 1.41762,0.20022 3.38262,0.84522" id="Fill-11" fill="#BA9579" mask="url(#mask-6)"></path>
                </g>
                <path d="M110.56104,61.16076 C110.38044,62.90376 110.82324,64.37856 111.54924,64.45356 C112.27584,64.52916 113.01144,63.17676 113.19204,61.43316 C113.37324,59.69016 112.93044,58.21536 112.20384,58.14036 C111.47724,58.06476 110.74224,59.41716 110.56104,61.16076" id="Fill-14" fill="#333333"></path>
                <path d="M106.73016,81.42132 C106.56756,81.06672 106.78236,80.65512 107.16516,80.57832 L108.36036,80.33892 L119.25756,78.15912 C119.64996,78.08112 120.01056,78.39492 119.98176,78.79392 C119.84616,80.70852 118.99596,85.50972 113.90256,86.14692 C109.62636,86.68152 107.45736,83.00352 106.73016,81.42132" id="Fill-16" fill="#333333"></path>
            </g>
            <g id="Group-21" transform="translate(106.200000, 100.920600)">
                <mask id="mask-8" fill="white">
                    <use xlink:href="#path-7"></use>
                </mask>
                <g id="Clip-20"></g>
                <path d="M0.59694,4.15668 C0.59694,4.15668 9.10674,2.94888 13.35834,1.61568 L15.17934,1.05708 L15.17934,-1.26792 L-0.21366,1.05708 C-0.21366,1.05708 -1.02366,3.38148 0.59694,4.15668" id="Fill-19" fill="#FFFFFF" mask="url(#mask-8)"></path>
            </g>
            <g id="Group-32" transform="translate(26.400000, 76.920600)">
                <line x1="84.41238" y1="0.36096" x2="88.15278" y2="0.36096" id="Stroke-22" stroke="#191847" stroke-width="1.2"></line>
                <polygon id="Fill-24" fill="#BA9579" points="104.29326 51.0762 101.89626 55.041 97.33926 104.922 104.70366 95.1516 128.00946 51.0762 119.44146 39.8958"></polygon>
                <polygon id="Fill-26" fill="#8BC79C" points="101.55696 60.8754 85.47636 67.0212 84.41256 77.5788 85.47636 81.0864 76.94076 104.922 64.52016 139.356 54.80916 142.3698 9.26496 124.2864 0.55776 142.3698 43.42296 169.4952 64.85556 170.835 73.89696 166.8162 93.60696 150.072 99.31176 71.8314"></polygon>
                <path d="M128.00964,51.0762 L120.04704,61.5816 L99.34824,98.8356 L101.89644,55.041 L93.60684,108.882 L88.15284,129.7536 L88.15284,134.4516 L86.28264,209.6814 L86.28264,217.8264 C86.28264,217.8264 105.42444,219.5946 125.46984,216.3792 L128.00964,51.0762 Z" id="Fill-28" fill="#93626D"></path>
                <path d="M128.00964,51.0762 L143.55264,55.4862 L149.24604,57.6444 L158.95764,71.8314 L206.51124,138.6864 L227.76624,211.0206 L209.94024,217.1958 L178.71384,151.5336 L163.64604,137.0118 L163.53444,165.8118 L181.06884,199.9866 C181.06884,199.9866 157.95264,212.2872 125.46984,216.3792 L112.67424,128.0814 L120.04704,61.5816 L128.00964,51.0762 Z" id="Fill-30" fill="#8BC79C"></path>
            </g>
        </g>
    </g>
</svg>