<svg width="352" height="320" viewBox="0 0 352 320" fill="none" xmlns="http://www.w3.org/2000/svg">
<mask id="mask0" mask-type="alpha" maskUnits="userSpaceOnUse" x="177" y="0" width="53" height="58">
<path d="M177.256 0.599976H229.81V57.7274H177.256V0.599976Z" fill="white"/>
</mask>
<g mask="url(#mask0)">
<path fill-rule="evenodd" clip-rule="evenodd" d="M213.897 0.599976C215.929 2.97778 216.726 7.41478 216.726 7.41478L222.961 5.20078L222.49 11.7996C222.49 11.7996 226.979 11.3844 229.81 12.7086C229.81 12.7086 226.154 13.5696 224.173 15.6618C223.166 16.7244 221.542 19.4556 222.691 22.1472L222.742 22.2318C227.026 30.306 226.541 40.467 220.636 48.2136C212.548 58.824 197.387 60.8706 186.773 52.7784C176.159 44.6892 174.113 29.5272 182.203 18.9138C188.059 11.235 197.617 8.06878 206.474 9.95698C206.556 9.97258 206.641 9.98878 206.725 10.0044L206.699 9.98038C209.601 10.3698 211.799 8.07778 212.555 6.82258C214.043 4.35478 213.897 0.599976 213.897 0.599976Z" fill="#333333"/>
</g>
<mask id="mask1" mask-type="alpha" maskUnits="userSpaceOnUse" x="49" y="148" width="252" height="147">
<path d="M250.182 148.752C182.023 148.952 52.8764 206.899 49.9202 239.938C49.8482 240.742 49.811 241.54 49.811 242.332V242.354C49.7888 281.734 136.237 306.909 210.852 288.725C286.982 270.173 321.906 197.725 285.579 159.121C278.801 151.918 266.479 148.798 250.889 148.752H250.182Z" fill="white"/>
</mask>
<g mask="url(#mask1)">
<path fill-rule="evenodd" clip-rule="evenodd" d="M47.166 297.391H302.657V146.107H47.166V297.391Z" fill="#F2F2F2"/>
</g>
<path fill-rule="evenodd" clip-rule="evenodd" d="M142.355 66.024C134.327 80.9868 135.281 118.942 145.656 121.616C149.793 122.683 158.607 120.071 167.577 114.664L161.948 154.499H195.195L183.75 101.15C190.133 93.657 194.453 84.4746 193.731 74.1858C191.651 44.5386 150.382 51.0612 142.355 66.024Z" fill="#BA9579"/>
<path fill-rule="evenodd" clip-rule="evenodd" d="M140.359 66.1077C146.718 67.3011 159.523 73.3719 169.734 82.0797C170.941 81.4401 172.325 81.0771 173.797 81.0771C178.507 81.0771 182.325 84.7983 182.325 89.3889C182.325 91.2627 181.69 92.9919 180.616 94.3815C182.637 97.7133 184.017 101.213 184.468 104.81C191.473 104.81 240.115 69.9327 203.613 35.7741C166.57 1.11092 123.241 46.8255 140.359 66.1077Z" fill="#333333"/>
<mask id="mask2" mask-type="alpha" maskUnits="userSpaceOnUse" x="35" y="181" width="282" height="139">
<path d="M35 181.843H316.954V319.321H35V181.843Z" fill="white"/>
</mask>
<g mask="url(#mask2)">
<path fill-rule="evenodd" clip-rule="evenodd" d="M289.553 290.929C291.731 293.883 305.169 301.491 314.264 305.554C317.915 307.185 317.131 310.365 316.061 311.382C307.351 319.656 299.432 313.521 290.091 311.13C279.859 308.511 283.047 321.056 274.962 319.116C276.251 313.383 279.74 302.496 276 296.557C274.338 293.916 262.054 270.597 239.148 226.598L261.924 221.94C277.371 263.905 286.582 286.901 289.553 290.929ZM38.3825 182.166C44.9531 185.934 51.7655 191.442 58.8209 198.689L99.0965 216.919L86.2367 233.9L56.0723 210.063C41.0063 207.211 34.0187 204.761 35.1107 202.712C36.7481 199.64 40.8929 201.725 42.3245 199.836C43.7003 198.018 40.4885 192.552 37.0553 187.341L36.6419 186.717C33.0611 181.326 36.4175 181.521 38.3825 182.166Z" fill="#BA9579"/>
</g>
<path fill-rule="evenodd" clip-rule="evenodd" d="M145.561 84.0814C145.38 85.8244 145.823 87.2992 146.549 87.3742C147.276 87.4498 148.011 86.0974 148.192 84.3538C148.373 82.6108 147.93 81.136 147.204 81.061C146.477 80.9854 145.742 82.3378 145.561 84.0814Z" fill="#333333"/>
<path fill-rule="evenodd" clip-rule="evenodd" d="M141.73 104.342C141.568 103.987 141.782 103.576 142.165 103.499L143.36 103.26L154.258 101.08C154.65 101.002 155.011 101.316 154.982 101.715C154.846 103.629 153.996 108.43 148.903 109.068C144.626 109.602 142.457 105.924 141.73 104.342Z" fill="#333333"/>
<mask id="mask3" mask-type="alpha" maskUnits="userSpaceOnUse" x="141" y="101" width="14" height="9">
<path d="M154.29 101.074L143.36 103.259L142.134 103.505C141.767 103.578 141.562 103.972 141.718 104.312C142.43 105.878 144.6 109.605 148.903 109.067C154.024 108.427 154.855 103.575 154.984 101.683C155.008 101.34 154.734 101.063 154.407 101.063C154.368 101.063 154.329 101.066 154.29 101.074Z" fill="white"/>
</mask>
<g mask="url(#mask3)">
<path fill-rule="evenodd" clip-rule="evenodd" d="M141.797 105.077C141.797 105.077 150.307 103.869 154.558 102.536L156.379 101.978V99.6526L140.986 101.978C140.986 101.978 140.176 104.302 141.797 105.077Z" fill="white"/>
</g>
<path d="M145.812 77.2816H149.552" stroke="#191847" stroke-width="1.2"/>
<path fill-rule="evenodd" clip-rule="evenodd" d="M165.693 127.997L163.296 131.962L158.739 181.843L166.104 172.072L189.409 127.997L180.841 116.816L165.693 127.997Z" fill="#BA9579"/>
<path fill-rule="evenodd" clip-rule="evenodd" d="M162.957 137.796L146.876 143.942L145.812 154.499L146.876 158.007L138.341 181.843L125.92 216.277L116.209 219.29L70.6647 201.207L61.9575 219.29L104.823 246.416L126.255 247.756L135.297 243.737L155.007 226.993L160.712 148.752L162.957 137.796Z" fill="#F8CACA"/>
<path fill-rule="evenodd" clip-rule="evenodd" d="M189.41 127.997L181.447 138.502L160.748 175.756L163.296 131.962L155.007 185.803L149.553 206.674V211.372L147.683 286.602V294.747C147.683 294.747 166.824 296.515 186.87 293.3L189.41 127.997Z" fill="#EA4F51"/>
<path fill-rule="evenodd" clip-rule="evenodd" d="M189.41 127.997L204.953 132.407L210.646 134.565L220.358 148.752L267.911 215.607L289.166 287.941L271.34 294.116L240.114 228.454L225.046 213.932L224.934 242.732L242.469 276.907C242.469 276.907 219.353 289.208 186.87 293.3L174.074 205.002L181.447 138.502L189.41 127.997Z" fill="#F8CACA"/>
</svg>
