<?xml version="1.0" encoding="UTF-8"?>
<svg width="352px" height="320px" viewBox="0 0 352 320" version="1.1" xmlns="http://www.w3.org/2000/svg" xmlns:xlink="http://www.w3.org/1999/xlink">
    <!-- Generator: Sketch 63.1 (92452) - https://sketch.com -->
    <title>Mascotte/Profil/2@1x</title>
    <desc>Created with Sketch.</desc>
    <defs>
        <polygon id="path-1" points="0.0382533387 0.3372 55.08786 0.3372 55.08786 55.5349717 0.0382533387 55.5349717"></polygon>
        <path d="M0.519,77.9664 C-2.748,112.5906 99.528,142.6074 167.7228,126.8466 L167.7228,126.8466 C235.9164,111.0852 244.1532,42.1044 211.6122,9.3096 L211.6122,9.3096 C205.4952,3.1446 194.3364,0.500399898 180.2208,0.500399898 L180.2208,0.500399898 C119.2506,0.5022 3.1722,49.851 0.519,77.9664 L0.519,77.9664 Z" id="path-3"></path>
        <path d="M180.2208,0.5004 C119.2506,0.5022 3.1722,49.851 0.519,77.9664 L0.519,77.9664 C0.471,78.4794 0.4458,78.993 0.4428,79.5042 L0.4428,79.5042 L0.4428,79.6704 C0.5712,107.046 65.8536,131.085 126.3,131.1552 L126.3,131.1552 L126.8322,131.1552 C141.0462,131.1384 154.9776,129.792 167.7228,126.8466 L167.7228,126.8466 C235.9164,111.0852 244.1532,42.1044 211.6122,9.3096 L211.6122,9.3096 C205.4958,3.1452 194.3382,0.5004 180.225,0.5004 L180.225,0.5004 C180.2238,0.5004 180.2226,0.5004 180.2208,0.5004 L180.2208,0.5004 Z" id="path-5"></path>
        <path d="M10.7778,0.4026 C7.323,2.8548 3.369,3.6168 1.2432,3.8544 L1.2432,3.8544 C0.5586,3.9312 0.2304,4.7424 0.6726,5.2692 L0.6726,5.2692 C2.2296,7.1268 5.4768,10.1088 9.1644,8.265 L9.1644,8.265 C12.8664,6.4134 12.5874,2.793 12.1326,0.8916 L12.1326,0.8916 C12.0342,0.4818 11.6724,0.237 11.2926,0.237 L11.2926,0.237 C11.1168,0.237 10.9368,0.2898 10.7778,0.4026 L10.7778,0.4026 Z" id="path-7"></path>
    </defs>
    <g id="Mascotte/Profil/2" stroke="none" stroke-width="1" fill="none" fill-rule="evenodd">
        <g id="Group-36" transform="translate(51.000000, 13.500000)">
            <g id="Group-6" transform="translate(18.600000, 0.262800)">
                <g id="Group-3" transform="translate(126.000000, 0.000000)">
                    <mask id="mask-2" fill="white">
                        <use xlink:href="#path-1"></use>
                    </mask>
                    <g id="Clip-2"></g>
                    <path d="M40.90686,0.33702 C42.60786,2.96082 42.81426,7.46442 42.81426,7.46442 L49.28646,6.09042 L47.95146,12.56982 C47.95146,12.56982 52.45626,12.74922 55.08786,14.43342 C55.08786,14.43342 51.35046,14.80662 49.11066,16.62042 C47.97366,17.54082 46.00506,20.03442 46.78866,22.85382 L46.82826,22.94442 C50.01246,31.51182 48.19446,41.52162 41.32206,48.42402 C31.90806,57.87702 16.60926,57.91062 7.15266,48.49242 C-2.30454,39.07662 -2.33694,23.77722 7.07826,14.32122 C13.89366,7.47882 23.78586,5.59902 32.31786,8.63562 C32.39586,8.66202 32.47866,8.68962 32.56026,8.71602 L32.53746,8.68842 C35.36226,9.45642 37.84326,7.47342 38.75826,6.32862 C40.55706,4.07802 40.90686,0.33702 40.90686,0.33702" id="Fill-1" fill="#333333" mask="url(#mask-2)"></path>
                </g>
                <path d="M0.51906,238.1661 C3.78606,203.5425 179.07126,136.7139 211.61226,169.5093 C244.15326,202.3041 235.91646,271.2855 167.72226,287.0463 C99.52866,302.8071 -2.74794,272.7903 0.51906,238.1661" id="Fill-4" fill="#F2F2F2"></path>
            </g>
            <g id="Group-9" transform="translate(18.600000, 160.462800)">
                <mask id="mask-4" fill="white">
                    <use xlink:href="#path-3"></use>
                </mask>
                <g id="Clip-8"></g>
                <polygon id="Fill-7" fill="#F2F2F2" mask="url(#mask-4)" points="0.4428 131.1552 230.0148 131.1552 230.0148 0.4998 0.4428 0.4998"></polygon>
            </g>
            <g id="Group-12" transform="translate(18.600000, 160.462800)">
                <mask id="mask-6" fill="white">
                    <use xlink:href="#path-5"></use>
                </mask>
                <g id="Clip-11"></g>
                <polygon id="Fill-10" fill="#F2F2F2" mask="url(#mask-6)" points="-2.202 133.8 232.6596 133.8 232.6596 -2.1444 -2.202 -2.1444"></polygon>
            </g>
            <g id="Group-23" transform="translate(105.000000, 20.662800)">
                <path d="M5.51418,42.23268 C-2.51382,57.19488 -1.55982,95.15028 8.81538,97.82448 C12.95298,98.89128 21.76638,96.27888 30.73758,90.87168 L25.10718,130.70748 L58.35498,130.70748 L46.90998,77.35788 C53.29278,69.86568 57.61338,60.68328 56.89098,50.39448 C54.81078,20.74728 13.54158,27.26988 5.51418,42.23268" id="Fill-13" fill="#B28B67"></path>
                <path d="M3.51936,42.3165 C9.87816,43.5099 22.68336,49.5801 32.89356,58.2879 C34.10076,57.6489 35.48496,57.2853 36.95676,57.2853 C41.66676,57.2853 45.48516,61.0065 45.48516,65.5977 C45.48516,67.4715 44.84916,69.2001 43.77576,70.5903 C45.79656,73.9215 47.17596,77.4213 47.62836,81.0189 C54.63276,81.0189 108.57996,51.2679 63.28596,12.7341 C17.30796,-26.3811 -7.53924,40.2405 3.51936,42.3165" id="Fill-15" fill="#333333"></path>
                <path d="M8.7207,60.28956 C8.5401,62.03316 8.9823,63.50736 9.7089,63.58296 C10.4355,63.65796 11.1705,62.30556 11.3517,60.56256 C11.5323,58.81896 11.0901,57.34476 10.3635,57.26916 C9.6369,57.19416 8.9013,58.54656 8.7207,60.28956" id="Fill-17" fill="#333333"></path>
                <line x1="10.84386" y1="53.54952" x2="13.48866" y2="56.19432" id="Stroke-19" stroke="#191847" stroke-width="1.2"></line>
                <path d="M5.94456,83.6655 C8.05956,83.4393 12.12516,82.6821 15.65196,80.1501 C16.11756,79.8159 16.77216,80.0451 16.91016,80.6013 C17.37696,82.4763 17.72556,86.1837 13.96416,88.0653 C10.21776,89.9385 6.92436,86.8287 5.39796,84.9801 C4.98696,84.4821 5.30256,83.7339 5.94456,83.6655" id="Fill-21" fill="#333333"></path>
            </g>
            <g id="Group-26" transform="translate(109.800000, 100.462800)">
                <mask id="mask-8" fill="white">
                    <use xlink:href="#path-7"></use>
                </mask>
                <g id="Clip-25"></g>
                <path d="M0.41796,5.64678 C0.41796,5.64678 2.68896,5.54598 5.67036,4.69338 C8.07096,4.00758 10.93236,2.83398 13.44156,0.83358 L13.25436,-3.39402 L3.23736,-2.42022 L-2.36484,2.59338 L0.41796,5.64678 Z" id="Fill-24" fill="#FFFFFF" mask="url(#mask-8)"></path>
            </g>
            <g id="Group-35" transform="translate(0.000000, 130.462800)">
                <path d="M23.2098,43.3671 C26.5716,43.4247 29.46,48.0519 31.8774,57.2481 L49.1022,66.7107 L48.1212,83.9961 C40.6836,78.6285 33.7656,75.0525 27.3672,73.2681 C15.1296,69.8559 10.1784,67.2507 4.1982,59.6307 C0.9984,55.5543 -1.7166,47.3577 1.329,44.6889 C3.387,42.8847 15.3348,51.7707 20.2296,52.7787 C25.1244,53.7861 20.6274,42.1653 23.2098,43.3671 M52.029,9.0705 C58.3584,13.3545 64.7832,19.3689 71.304,27.1125 L110.5176,48.5895 L96.0366,64.1319 L67.5432,38.0433 C52.533,33.9063 45.669,30.8805 46.95,28.9647 C48.8724,26.0913 52.8906,28.5075 54.5016,26.7783 C56.1132,25.0485 53.0388,19.0017 49.8762,13.3881 C46.713,7.7745 50.0952,8.2629 52.029,9.0705" id="Fill-27" fill="#997659"></path>
                <path d="M129.61488,43.80534 C115.87968,43.66014 97.56408,40.75974 78.02088,28.35414 L70.34628,45.46974 C83.82648,58.84794 102.78108,69.83994 119.35428,69.37434 C132.41508,69.00774 139.09068,53.20914 129.61488,43.80534" id="Fill-29" fill="#8BC79C"></path>
                <path d="M160.44486,0.57492 L128.70006,0.34872 L121.02486,38.32392 L115.84386,55.68612 L119.35446,69.37452 L98.58006,156.70992 C98.58006,156.70992 156.36486,168.70632 202.48986,151.70112 L183.37326,98.70672 L183.37326,36.35772 L160.44486,0.57492 Z" id="Fill-31" fill="#8BC79C"></path>
                <polygon id="Fill-33" fill="#8BC79C" points="140.35188 3.75654 128.70048 0.34854 121.78608 16.70634 122.85048 20.21394 114.31428 44.04954 101.89428 78.48354 92.18268 81.49734 46.63848 63.41394 37.93128 81.49734 80.79648 108.62274 102.22908 109.96254 111.27108 105.94374 130.97988 89.19954 136.68468 10.95894"></polygon>
            </g>
        </g>
    </g>
</svg>