<svg width="352" height="320" viewBox="0 0 352 320" fill="none" xmlns="http://www.w3.org/2000/svg">
<mask id="mask0" mask-type="alpha" maskUnits="userSpaceOnUse" x="195" y="14" width="56" height="56">
<path d="M195.638 14.1H250.688V69.2977H195.638V14.1Z" fill="white"/>
</mask>
<g mask="url(#mask0)">
<path fill-rule="evenodd" clip-rule="evenodd" d="M236.507 14.0999C238.208 16.7237 238.414 21.2273 238.414 21.2273L244.886 19.8533L243.551 26.3327C243.551 26.3327 248.056 26.5121 250.688 28.1963C250.688 28.1963 246.95 28.5695 244.711 30.3833C243.574 31.3037 241.605 33.7973 242.389 36.6167L242.428 36.7073C245.612 45.2747 243.794 55.2845 236.922 62.1869C227.508 71.6399 212.209 71.6735 202.753 62.2553C193.295 52.8395 193.263 37.5401 202.678 28.0841C209.494 21.2417 219.386 19.3619 227.918 22.3985C227.996 22.4249 228.079 22.4525 228.16 22.4789L228.137 22.4513C230.962 23.2193 233.443 21.2363 234.358 20.0915C236.157 17.8409 236.507 14.0999 236.507 14.0999Z" fill="#333333"/>
</g>
<path fill-rule="evenodd" clip-rule="evenodd" d="M70.1189 251.929C73.3859 217.305 248.671 150.477 281.212 183.272C313.753 216.067 305.516 285.048 237.322 300.809C169.128 316.57 66.8519 286.553 70.1189 251.929Z" fill="#F2F2F2"/>
<mask id="mask1" mask-type="alpha" maskUnits="userSpaceOnUse" x="70" y="174" width="230" height="132">
<path d="M70.1189 251.929C66.8519 286.553 169.128 316.57 237.323 300.809C305.516 285.048 313.753 216.067 281.212 183.272C275.095 177.107 263.936 174.463 249.821 174.463C188.85 174.465 72.7721 223.814 70.1189 251.929Z" fill="white"/>
</mask>
<g mask="url(#mask1)">
<path fill-rule="evenodd" clip-rule="evenodd" d="M70.0425 305.118H299.614V174.463H70.0425V305.118Z" fill="#F2F2F2"/>
</g>
<mask id="mask2" mask-type="alpha" maskUnits="userSpaceOnUse" x="70" y="174" width="230" height="132">
<path d="M249.82 174.463C188.85 174.465 72.7719 223.814 70.1187 251.929C70.0707 252.442 70.0455 252.956 70.0425 253.467V253.633C70.1709 281.009 135.453 305.048 195.9 305.118H196.432C210.646 305.101 224.577 303.755 237.322 300.809C305.516 285.048 313.753 216.067 281.212 183.272C275.095 177.108 263.938 174.463 249.825 174.463C249.823 174.463 249.822 174.463 249.82 174.463Z" fill="white"/>
</mask>
<g mask="url(#mask2)">
<path fill-rule="evenodd" clip-rule="evenodd" d="M67.3975 307.763H302.259V171.818H67.3975V307.763Z" fill="#F2F2F2"/>
</g>
<path fill-rule="evenodd" clip-rule="evenodd" d="M161.514 76.3955C153.486 91.3577 154.44 129.313 164.815 131.987C168.953 133.054 177.766 130.442 186.737 125.034L181.107 164.87H214.355L202.91 111.521C209.292 104.028 213.613 94.8461 212.891 84.5573C210.81 54.9101 169.541 61.4327 161.514 76.3955Z" fill="#B28B67"/>
<path fill-rule="evenodd" clip-rule="evenodd" d="M159.519 76.4793C165.878 77.6727 178.683 83.7429 188.893 92.4507C190.1 91.8117 191.484 91.4481 192.956 91.4481C197.666 91.4481 201.485 95.1693 201.485 99.7605C201.485 101.634 200.849 103.363 199.775 104.753C201.796 108.084 203.175 111.584 203.628 115.182C210.632 115.182 264.579 85.4307 219.285 46.8969C173.307 7.78171 148.46 74.4033 159.519 76.4793Z" fill="#333333"/>
<path fill-rule="evenodd" clip-rule="evenodd" d="M164.721 94.4523C164.54 96.1959 164.982 97.6701 165.709 97.7457C166.435 97.8207 167.17 96.4683 167.352 94.7253C167.532 92.9817 167.09 91.5075 166.363 91.4319C165.637 91.3569 164.901 92.7093 164.721 94.4523Z" fill="#333333"/>
<path d="M166.843 87.7123L169.488 90.3571" stroke="#191847" stroke-width="1.2"/>
<path fill-rule="evenodd" clip-rule="evenodd" d="M161.944 117.828C164.059 117.602 168.125 116.845 171.652 114.313C172.117 113.979 172.772 114.208 172.91 114.764C173.377 116.639 173.725 120.347 169.964 122.228C166.217 124.101 162.924 120.992 161.398 119.143C160.987 118.645 161.302 117.897 161.944 117.828Z" fill="#333333"/>
<mask id="mask3" mask-type="alpha" maskUnits="userSpaceOnUse" x="161" y="114" width="13" height="9">
<path d="M171.578 114.365C168.123 116.818 164.169 117.58 162.043 117.817C161.358 117.894 161.03 118.705 161.472 119.232C163.029 121.09 166.277 124.072 169.964 122.228C173.666 120.376 173.387 116.756 172.932 114.854C172.834 114.445 172.472 114.2 172.092 114.2C171.917 114.2 171.737 114.253 171.578 114.365Z" fill="white"/>
</mask>
<g mask="url(#mask3)">
<path fill-rule="evenodd" clip-rule="evenodd" d="M161.218 119.61C161.218 119.61 163.489 119.509 166.47 118.656C168.871 117.97 171.732 116.797 174.241 114.796L174.054 110.569L164.037 111.543L158.435 116.556L161.218 119.61Z" fill="white"/>
</g>
<path fill-rule="evenodd" clip-rule="evenodd" d="M74.2097 187.33C77.5715 187.387 80.4599 192.015 82.8773 201.211L100.102 210.673L99.1211 227.959C91.6835 222.591 84.7655 219.015 78.3671 217.231C66.1295 213.819 61.1783 211.213 55.1981 203.593C51.9983 199.517 49.2833 191.32 52.3289 188.652C54.3869 186.847 66.3347 195.733 71.2295 196.741C76.1243 197.749 71.6273 186.128 74.2097 187.33ZM103.029 153.033C109.358 157.317 115.783 163.332 122.304 171.075L161.517 192.552L147.036 208.095L118.543 182.006C103.533 177.869 96.6689 174.843 97.9499 172.927C99.8723 170.054 103.89 172.47 105.501 170.741C107.113 169.011 104.039 162.964 100.876 157.351C97.7129 151.737 101.095 152.226 103.029 153.033Z" fill="#997659"/>
<path fill-rule="evenodd" clip-rule="evenodd" d="M180.615 187.768C166.88 187.623 148.564 184.722 129.021 172.317L121.346 189.432C134.826 202.811 153.781 213.803 170.354 213.337C183.415 212.97 190.091 197.172 180.615 187.768Z" fill="#F8CACA"/>
<path fill-rule="evenodd" clip-rule="evenodd" d="M211.445 144.538L179.7 144.311L172.025 182.287L166.844 199.649L170.354 213.337L149.58 300.673C149.58 300.673 207.365 312.669 253.49 295.664L234.373 242.669V180.32L211.445 144.538Z" fill="#F8CACA"/>
<path fill-rule="evenodd" clip-rule="evenodd" d="M191.352 147.719L179.7 144.311L172.786 160.669L173.85 164.177L165.314 188.012L152.894 222.446L143.183 225.46L97.6384 207.377L88.9312 225.46L131.796 252.585L153.229 253.925L162.271 249.906L181.98 233.162L187.685 154.922L191.352 147.719Z" fill="#F8CACA"/>
</svg>
