<?xml version="1.0" encoding="UTF-8"?>
<svg width="352px" height="320px" viewBox="0 0 352 320" version="1.1" xmlns="http://www.w3.org/2000/svg" xmlns:xlink="http://www.w3.org/1999/xlink">
    <!-- Generator: Sketch 63.1 (92452) - https://sketch.com -->
    <title>Mascotte/Face/2@1x</title>
    <desc>Created with Sketch.</desc>
    <defs>
        <path d="M222.9126,0.4848 C147.5022,0.4878 3.9318,64.845 0.651,101.511 L0.651,101.511 C-2.4864,136.5726 55.9098,162.1674 121.6524,162.2346 L121.6524,162.2346 L122.1456,162.2346 C140.9148,162.2166 160.2612,160.1178 178.9482,155.5638 L178.9482,155.5638 C263.2932,135.0084 301.9866,54.7428 261.738,11.9736 L261.738,11.9736 C254.1732,3.9342 240.372,0.4848 222.9168,0.4848 L222.9168,0.4848 C222.915,0.4848 222.915,0.4848 222.9126,0.4848 L222.9126,0.4848 Z" id="path-1"></path>
        <path d="M0.651,118.311 C-3.3894,163.4652 94.6032,192.918 178.9482,172.3638 L178.9482,172.3638 C263.2932,151.8084 303.0306,70.536 261.738,28.7736 L261.738,28.7736 C241.5402,8.3454 216.3942,0.1656 189.7314,0.167399703 L189.7314,0.167399703 C104.4408,0.1746 3.7296,83.9106 0.651,118.311 L0.651,118.311 Z" id="path-3"></path>
        <path d="M12.4434,0.1656 L1.8222,1.728 L0.9792,1.8522 C0.396,1.938 0.0552,2.553 0.2928,3.0918 L0.2928,3.0918 C1.0704,4.8492 3.0606,8.106 7.0596,7.8138 L7.0596,7.8138 C11.841,7.464 13.113,3.2964 13.4514,1.1952 L13.4514,1.1952 C13.5396,0.642 13.1142,0.156 12.5754,0.156 L12.5754,0.156 C12.5322,0.156 12.4884,0.159 12.4434,0.1656" id="path-5"></path>
    </defs>
    <g id="Mascotte/Face/2" stroke="none" stroke-width="1" fill="none" fill-rule="evenodd">
        <g id="Group-44" transform="translate(36.500000, 2.500000)">
            <g id="Group-3" transform="translate(0.000000, 151.483800)">
                <mask id="mask-2" fill="white">
                    <use xlink:href="#path-1"></use>
                </mask>
                <g id="Clip-2"></g>
                <polygon id="Fill-1" fill="#F2F2F2" mask="url(#mask-2)" points="-2.4 165.1638 280.6608 165.1638 280.6608 -2.4456 -2.4 -2.4456"></polygon>
            </g>
            <polygon id="Fill-4" fill="#8BC79C" points="96.3738 199.87344 94.863 226.75944 116.3112 227.36364 112.6866 185.97744 99.6966 185.37324"></polygon>
            <g id="Group-7" transform="translate(0.000000, 134.683800)">
                <mask id="mask-4" fill="white">
                    <use xlink:href="#path-3"></use>
                </mask>
                <g id="Clip-6"></g>
                <path d="M143.79018,48.1617 C143.79018,48.1617 124.24098,0.6549 122.36718,0.6549 C120.49338,0.6549 110.76678,7.6155 110.76678,7.6155 L105.18918,65.4009 C105.18918,65.4009 113.43378,95.3829 107.43798,99.8799 C101.44158,104.3769 71.46018,168.8373 76.33158,175.5831 C81.20358,182.3289 111.18558,201.8175 129.17418,200.3181 C147.16338,198.8193 194.00958,194.3223 194.38398,189.8241 C194.75898,185.3271 180.89238,106.6257 179.01858,105.5013 C177.14478,104.3769 181.64178,84.1401 181.64178,84.1401 L178.64358,6.9375 L174.14658,-3.5559 L160.65498,35.7945 L143.79018,48.1617 Z" id="Fill-5" fill="#93626D" mask="url(#mask-4)"></path>
            </g>
            <g id="Group-40" transform="translate(69.000000, 0.283800)">
                <path d="M65.61648,0.31638 C68.49468,1.53798 71.18748,5.15418 71.18748,5.15418 L75.78108,0.39198 L78.30228,6.50838 C78.30228,6.50838 82.13448,4.13478 85.25868,4.05738 C85.25868,4.05738 82.37088,6.45858 81.53028,9.21558 C81.10368,10.61538 80.86788,13.78338 83.09628,15.68058 L83.17968,15.73338 C90.61488,21.04998 94.71228,30.36078 92.88228,39.92838 C90.37428,53.03118 77.71668,61.62498 64.60788,59.11458 C51.50088,56.60778 42.90828,43.94958 45.41568,30.84258 C47.23188,21.35718 54.37548,14.26098 63.14568,12.00138 C63.22548,11.97918 63.30888,11.95578 63.39168,11.93178 L63.35688,11.92218 C66.12828,10.97718 67.07328,7.94478 67.19088,6.48378 C67.42128,3.61218 65.61648,0.31638 65.61648,0.31638" id="Fill-8" fill="#333333"></path>
                <path d="M65.98326,34.71564 C89.37186,34.71564 108.33246,53.67624 108.33246,77.06424 C108.33246,100.45344 89.37186,119.41344 65.98326,119.41344 C42.59466,119.41344 23.63406,100.45344 23.63406,77.06424 C23.63406,53.67624 42.59466,34.71564 65.98326,34.71564" id="Fill-10" fill="#333333"></path>
                <path d="M56.42664,108.35742 C56.42664,108.35742 69.54324,128.96982 60.17424,133.46742 C50.80524,137.96442 50.05584,136.09062 50.05584,136.09062 L56.05164,180.31362 L74.79024,193.05522 L101.02404,167.57082 L101.77404,166.44642 L104.39724,136.09062 L101.02404,129.71982 C101.02404,129.71982 87.53244,131.59362 86.40804,120.35022 C85.28364,109.10742 83.78484,101.98662 83.78484,101.98662 L56.42664,108.35742 Z" id="Fill-12" fill="#BA9579"></path>
                <path d="M59.58216,56.54826 C73.27116,53.34486 87.83376,65.55666 92.10876,83.82366 C96.38376,102.09066 88.75176,119.49666 75.06276,122.70006 C61.37316,125.90346 46.81056,113.69166 42.53616,95.42466 C38.26116,77.15766 45.89316,59.75166 59.58216,56.54826" id="Fill-14" fill="#C19B7C"></path>
                <path d="M58.46802,135.68496 C66.16842,128.61336 63.53202,128.28876 56.39922,132.58776 C49.65162,136.65456 28.47282,132.03516 26.07042,136.83996 C23.07222,142.83636 21.19842,198.30216 22.32282,199.80096 C23.44722,201.30036 17.45082,257.51556 19.69902,258.26556 C21.94782,259.01496 26.07042,253.76796 27.94422,249.64596 C29.81802,245.52276 46.30782,168.69576 46.30782,168.69576 L58.46802,135.68496 Z" id="Fill-16" fill="#8BC79C"></path>
                <path d="M96.06264,131.29866 C86.19924,126.52026 90.24504,126.25446 99.20964,129.06786 C106.30104,131.29386 123.83844,135.87186 126.50844,136.46526 C129.88104,137.21466 134.37864,143.58606 134.00364,144.33606 C133.62924,145.08546 130.25604,183.31146 130.25604,183.31146 C130.25604,183.31146 133.62864,190.43226 134.75304,191.55666 C135.87744,192.68106 152.74224,240.65106 148.99464,244.39866 C145.24704,248.14626 114.51564,256.76586 111.89244,253.01826 C109.26924,249.27066 109.26924,226.78506 102.89784,222.66186 C96.52704,218.53986 86.03364,169.07046 91.28004,153.70506 C94.81044,143.36586 99.76344,133.09146 96.06264,131.29866" id="Fill-18" fill="#8BC79C"></path>
                <path d="M142.6236,241.026 L125.3916,252.6018 C125.3916,252.6018 101.3988,256.3914 102.8982,242.8998 C104.397,229.4082 124.635,228.2838 124.635,228.2838 L134.7534,229.0332 L142.6236,241.026 Z" id="Fill-20" fill="#BA9579"></path>
                <path d="M62.00448,53.63964 C78.93108,50.70444 93.62808,53.94684 94.82988,60.87984 C96.03228,67.81404 83.28468,75.81444 66.35808,78.74964 C49.43148,81.68364 34.73508,78.44244 33.53268,71.50824 C32.33028,64.57464 45.07788,56.57484 62.00448,53.63964" id="Fill-22" fill="#333333"></path>
                <path d="M132.87948,141.7119 C132.87948,141.7119 182.72388,196.0533 180.10068,201.6747 C177.47688,207.2967 144.49728,250.7703 143.37288,250.0203 C142.24908,249.2709 133.62948,227.5341 129.88128,227.5341 C129.88128,227.5341 142.93908,224.6397 145.03008,221.4021 C147.12048,218.1651 157.61448,205.0485 152.36748,201.6747 C147.12048,198.3021 129.88128,179.5635 128.75688,178.8141 C127.63248,178.0647 132.87948,141.7119 132.87948,141.7119" id="Fill-24" fill="#8BC79C"></path>
                <path d="M3.20946,228.65862 L20.44146,240.23442 C20.44146,240.23442 44.43426,244.02402 42.93486,230.53242 C41.43606,217.04082 21.19806,215.91642 21.19806,215.91642 L11.07966,216.66582 L3.20946,228.65862 Z" id="Fill-26" fill="#BA9579"></path>
                <path d="M30.94242,136.46544 C22.33062,145.87464 16.04202,157.16904 12.57882,169.44504 C6.95682,189.68244 0.21102,195.67824 0.21102,199.80144 C0.21102,203.92404 1.33542,235.77864 3.95922,236.15364 C6.58242,236.52804 5.08302,216.66564 19.32462,217.41564 C19.32462,217.41564 17.82522,214.79184 19.32462,213.66804 C20.82342,212.54364 21.19842,211.79424 20.44902,211.04424 C19.69902,210.29484 19.32462,207.67164 20.44902,206.54724 C21.57282,205.42284 22.32282,199.80144 22.32282,199.80144 L25.32102,198.67704 L30.94242,136.46544 Z" id="Fill-28" fill="#8BC79C"></path>
                <path d="M75.63804,90.36624 C75.74784,91.79724 76.32084,92.91984 76.91664,92.87424 C77.51304,92.82864 77.90724,91.63044 77.79684,90.20004 C77.68704,88.76904 77.11404,87.64644 76.51824,87.69264 C75.92184,87.73824 75.52764,88.93524 75.63804,90.36624" id="Fill-30" fill="#333333"></path>
                <polygon id="Fill-32" fill="#333333" points="77.673 85.55448 74.7156 84.76068 75.0264 83.60148 77.9838 84.39528"></polygon>
                <path d="M62.14716,92.82246 C62.54856,94.20006 62.40876,95.45286 61.83456,95.61966 C61.25976,95.78646 60.46956,94.80546 60.06816,93.42786 C59.66676,92.04966 59.80716,90.79746 60.38136,90.63006 C60.95556,90.46266 61.74636,91.44426 62.14716,92.82246" id="Fill-34" fill="#333333"></path>
                <polygon id="Fill-36" fill="#333333" points="58.54716 89.0367 57.84696 88.0611 60.33516 86.2755 61.03536 87.2511"></polygon>
                <path d="M65.09322,107.49198 C64.85502,106.95318 65.19582,106.33758 65.77962,106.25238 L66.62262,106.12818 L77.24322,104.56578 C77.84262,104.47818 78.34722,104.99778 78.25122,105.59538 C77.91342,107.69658 76.64142,111.86358 71.86002,112.21338 C67.86042,112.50558 65.87022,109.24938 65.09322,107.49198" id="Fill-38" fill="#333333"></path>
            </g>
            <g id="Group-43" transform="translate(133.800000, 104.683800)">
                <mask id="mask-6" fill="white">
                    <use xlink:href="#path-5"></use>
                </mask>
                <g id="Clip-42"></g>
                <path d="M0.1368,3.4623 C0.1368,3.4623 8.6982,2.6937 13.0134,1.5795 L14.8614,1.1151 L14.9802,-1.2063 L-0.513,0.3249 C-0.513,0.3249 -1.4418,2.6049 0.1368,3.4623" id="Fill-41" fill="#FFFFFF" mask="url(#mask-6)"></path>
            </g>
        </g>
    </g>
</svg>