<?xml version="1.0" encoding="UTF-8"?>
<svg width="352px" height="320px" viewBox="0 0 352 320" version="1.1" xmlns="http://www.w3.org/2000/svg" xmlns:xlink="http://www.w3.org/1999/xlink">
    <!-- Generator: Sketch 63.1 (92452) - https://sketch.com -->
    <title>Mascotte/Face/3@1x</title>
    <desc>Created with Sketch.</desc>
    <defs>
        <polygon id="path-1" points="0.432657483 0.1728 44.5741574 0.1728 44.5741574 54.3016664 0.432657483 54.3016664"></polygon>
        <polygon id="path-3" points="0.23437133 0.493450315 140.7684 0.493450315 140.7684 74.1644009 0.23437133 74.1644009"></polygon>
        <polygon id="path-5" points="0.40452 0.1458 113.734616 0.1458 113.734616 136.8 0.40452 136.8"></polygon>
        <path d="M6.8178,0.7176 C4.26,1.4136 1.9206,2.9154 0.7464,3.7548 L0.7464,3.7548 C0.2766,4.0908 0.1848,4.7538 0.5496,5.2014 L0.5496,5.2014 C1.6404,6.5412 4.2468,8.8794 8.5254,7.7148 L8.5254,7.7148 C12.831,6.5436 13.8804,3.1746 14.1342,1.476 L14.1342,1.476 C14.2182,0.9138 13.8168,0.3966 13.251,0.3312 L13.251,0.3312 C12.6828,0.2652 11.898,0.2016 10.9902,0.2016 L10.9902,0.2016 C9.7482,0.2016 8.2764,0.321 6.8178,0.7176 L6.8178,0.7176 Z" id="path-7"></path>
    </defs>
    <g id="Mascotte/Face/3" stroke="none" stroke-width="1" fill="none" fill-rule="evenodd">
        <g id="Group-45" transform="translate(0.800000, 32.000000)">
            <g id="Group-36" transform="translate(0.000000, 0.427200)">
                <path d="M230.1039,124.1976 C235.1535,130.2576 223.0347,151.4652 223.0347,151.4652 C225.0543,154.4952 229.0935,177.723 224.0439,193.8816 C221.2461,202.8342 220.3095,222.3258 220.0293,237.9318 C286.6983,212.1612 324.6927,164.3556 308.9829,135.4962 C301.3635,121.4988 261.2967,115.9842 214.4655,117.7458 C221.0499,119.1498 227.7177,121.335 230.1039,124.1976" id="Fill-1" fill="#F2F2F2"></path>
                <path d="M125.07342,251.44566 C122.04402,246.39606 144.26142,210.03966 149.31102,207.00966 C154.36122,203.98026 146.28222,191.86146 146.28222,191.86146 C146.28222,191.86146 142.24182,183.78246 143.25222,179.74266 C144.26142,175.70286 138.20262,175.70286 134.16282,173.68326 C130.12302,171.66306 118.00482,146.41566 118.00482,139.34646 C118.00482,132.27726 146.28222,127.22766 146.28222,127.22766 C146.28222,127.22766 155.37102,140.35686 163.45002,144.39606 C169.34502,147.46026 175.07562,150.83166 180.61842,154.49526 C180.61842,154.49526 186.67782,157.52466 187.68762,154.47486 C188.02122,153.48486 188.89962,151.52586 189.91002,149.33406 C193.19922,142.26606 195.54522,134.79606 196.88802,127.11666 L198.36222,118.62126 C132.93762,123.24186 60.34422,141.11286 45.46662,169.20186 C23.38842,210.88626 63.11382,250.90326 128.87322,254.18286 C126.95622,253.24386 125.61282,252.34446 125.07342,251.44566" id="Fill-3" fill="#F2F2F2"></path>
                <g id="Group-7" transform="translate(127.800000, 0.000000)">
                    <mask id="mask-2" fill="white">
                        <use xlink:href="#path-1"></use>
                    </mask>
                    <g id="Clip-6"></g>
                    <path d="M8.29842,3.34854 C11.15142,3.47694 14.60862,5.71254 14.60862,5.71254 L17.02122,0.17274 L21.12882,4.60314 C21.12882,4.60314 23.65242,1.34994 26.30082,0.28734 C26.30082,0.28734 24.59502,3.26334 24.75462,5.89014 C24.83562,7.22454 25.64442,10.01094 28.15662,10.92414 L28.24422,10.94274 C36.30222,13.12134 42.77742,19.78374 44.26182,28.55454 C46.29342,40.56774 38.20122,51.95754 26.18262,53.98854 C14.16642,56.02314 2.77722,47.92914 0.74382,35.91354 C-0.72618,27.21714 3.12522,18.86634 9.91002,14.13594 C9.97062,14.09214 10.03542,14.04534 10.09782,13.99854 L10.06542,14.00094 C12.13542,12.30894 11.97762,9.41214 11.61162,8.12514 C10.89342,5.59374 8.29842,3.34854 8.29842,3.34854" id="Fill-5" fill="#333333" mask="url(#mask-2)"></path>
                </g>
                <path d="M147.3801,32.67006 C167.3955,25.21266 189.6675,35.39346 197.1243,55.40886 C204.5817,75.42486 194.4009,97.69566 174.3855,105.15306 C154.3695,112.60986 132.0987,102.42966 124.6419,82.41366 C117.1845,62.39826 127.3647,40.12746 147.3801,32.67006" id="Fill-8" fill="#333333"></path>
                <path d="M156.3807,105.0099 C156.3807,105.0099 161.4303,121.1685 144.2619,130.2573 C127.0935,139.3467 158.4003,161.5641 158.4003,161.5641 L182.6385,170.6535 L209.9055,158.5347 L204.8559,117.1281 C204.8559,117.1281 181.6281,125.2077 181.6281,95.9205 L156.3807,105.0099 Z" id="Fill-10" fill="#BA9579"></path>
                <path d="M156.03672,51.35796 C167.43852,48.28356 180.16812,58.72116 184.46952,74.67216 C188.77092,90.62316 183.01512,106.04616 171.61392,109.12056 C160.21212,112.19556 147.48252,101.75736 143.18112,85.80636 C138.87972,69.85536 144.63552,54.43236 156.03672,51.35796" id="Fill-12" fill="#C19B7C"></path>
                <path d="M128.87094,134.23644 C125.61894,132.89304 121.88274,134.97384 119.70114,137.73024 C117.51954,140.48784 116.26734,143.89104 114.11634,146.66844 C111.69234,149.77824 108.26874,151.91964 105.07794,154.25244 C100.91034,157.30644 97.06314,160.77444 93.59514,164.60364 C91.75734,166.62384 89.96934,168.82524 87.53514,170.17824 C83.66754,172.34964 78.77994,171.96624 74.69994,170.17824 C70.61994,168.39144 67.19634,165.50244 63.85374,162.59424 C53.91594,153.92904 44.11314,145.06584 34.44474,136.00344 C27.56754,129.58044 17.66034,126.34884 8.30874,125.31924 C6.02634,125.06664 3.45114,125.05584 1.75434,126.60084 C0.63594,127.72224 0.00834,129.23964 0.00774,130.82304 C-0.20466,136.08444 4.26894,140.46744 9.09654,142.59864 C13.92354,144.72924 19.27614,145.37544 24.13374,147.39564 C28.74834,149.33664 32.79054,152.42364 35.87934,156.36324 C39.27234,160.68564 43.38294,164.22024 46.61394,168.65364 C48.08874,170.67384 49.39134,172.80444 50.80554,174.86484 C54.23574,179.65284 57.97374,184.21404 61.99494,188.51904 C66.67134,193.71984 72.38694,199.35444 79.35594,198.82944 C82.26354,198.61764 84.95034,197.31504 87.56574,196.03224 C95.73594,191.99304 103.97694,187.95264 111.13674,182.34864 C115.32834,179.06604 119.11494,175.27884 123.50814,172.24884 C127.70934,169.37124 132.50694,167.19924 135.90954,163.39224 C139.83654,158.91984 141.36354,152.82684 140.00994,147.03144 C138.49674,141.26244 134.37714,136.53024 128.87094,134.23644" id="Fill-14" fill="#BA9579"></path>
                <g id="Group-18" transform="translate(209.400000, 114.600000)">
                    <mask id="mask-4" fill="white">
                        <use xlink:href="#path-3"></use>
                    </mask>
                    <g id="Clip-17"></g>
                    <path d="M11.85684,9.53724 C15.10884,8.19444 18.84504,10.27464 21.02664,13.03164 C23.20824,15.78864 24.46044,19.19184 26.61204,21.96924 C29.03544,25.07964 32.45904,27.22104 35.65044,29.55324 C39.81804,32.60724 43.66524,36.07524 47.13324,39.90504 C48.97044,41.92464 50.75844,44.12604 53.19264,45.47964 C57.06024,47.65044 61.94784,47.26704 66.02844,45.47964 C70.10844,43.69224 73.53204,40.80384 76.87464,37.89564 C86.83944,29.19684 96.65544,20.33304 106.32324,11.30424 C113.20044,4.88124 123.10824,1.64964 132.45984,0.62004 C134.74224,0.36744 137.31744,0.35724 139.01424,1.90224 C140.13204,3.02304 140.76084,4.54104 140.76144,6.12384 C140.97324,11.38524 136.49904,15.76824 131.67204,17.89944 C126.84444,20.03004 121.49244,20.67624 116.63484,22.69644 C112.01964,24.63744 107.97744,27.72444 104.88924,31.66404 C101.49564,35.98644 97.38564,39.52164 94.15404,43.95444 C92.67924,45.97464 91.37664,48.10524 89.96304,50.16564 C86.51964,54.95544 82.76844,59.51664 78.73284,63.81984 C74.05704,69.02064 68.34144,74.65584 61.37244,74.13024 C58.46424,73.91904 55.77744,72.61584 53.16204,71.33304 C44.99244,67.29384 36.75084,63.25404 29.59104,57.64944 C25.39944,54.36684 21.61284,50.57964 17.21964,47.54964 C13.01844,44.67204 8.22084,42.50004 4.81824,38.69304 C0.89124,34.22124 -0.63576,28.12824 0.71784,22.33284 C2.23164,16.56324 6.35124,11.83104 11.85684,9.53724" id="Fill-16" fill="#BA9579" mask="url(#mask-4)"></path>
                </g>
                <path d="M198.79668,116.11866 L198.36228,118.62126 C203.79168,118.23726 209.17188,117.94506 214.46508,117.74586 C207.11148,116.17866 199.86228,115.58526 198.79668,116.11866" id="Fill-19" fill="#333333"></path>
                <g id="Group-23" transform="translate(117.600000, 117.600000)">
                    <mask id="mask-6" fill="white">
                        <use xlink:href="#path-5"></use>
                    </mask>
                    <g id="Clip-22"></g>
                    <path d="M59.08632,132.8472 C74.55432,129.783 89.06532,125.4978 102.42912,120.3318 C102.70932,104.7258 103.64652,85.2342 106.44432,76.2816 C111.49392,60.123 107.45412,36.8952 105.43452,33.8652 C105.43452,33.8652 117.55332,12.6576 112.50372,6.5976 C110.11812,3.735 103.44972,1.5498 96.86532,0.1458 C91.57212,0.345 86.19192,0.6372 80.76252,1.0212 L79.28832,9.5166 C77.94552,17.196 75.59892,24.666 72.30972,31.7346 C71.29932,33.9258 70.42152,35.8848 70.08792,36.8748 C69.07752,39.9246 63.01872,36.8952 63.01872,36.8952 C57.47532,33.2316 51.74532,29.8602 45.84972,26.796 C37.77132,22.7568 28.68192,9.6276 28.68192,9.6276 C28.68192,9.6276 0.40452,14.6772 0.40452,21.7464 C0.40452,28.8156 12.52332,54.063 16.56312,56.0832 C20.60232,58.1028 26.66172,58.1028 25.65192,62.1426 C24.64212,66.1824 28.68192,74.2614 28.68192,74.2614 C28.68192,74.2614 36.76092,86.3802 31.71132,89.4096 C26.66172,92.4396 4.44432,128.796 7.47372,133.8456 C8.01312,134.7444 9.35592,135.6438 11.27352,136.5828 C26.03532,137.319 42.10392,136.2114 59.08632,132.8472" id="Fill-21" fill="#93626D" mask="url(#mask-6)"></path>
                </g>
                <path d="M156.87636,49.21986 C171.57816,43.74246 185.31516,44.18406 187.55916,50.20686 C189.80316,56.22906 179.70396,65.55186 165.00216,71.02926 C150.30036,76.50666 136.56336,76.06446 134.31936,70.04226 C132.07536,64.02006 142.17456,54.69726 156.87636,49.21986" id="Fill-24" fill="#333333"></path>
                <path d="M170.9418,81.07026 C171.2298,82.47606 171.9384,83.51826 172.5246,83.39826 C173.1102,83.27826 173.3514,82.04106 173.0634,80.63526 C172.7754,79.22946 172.0668,78.18666 171.4806,78.30726 C170.895,78.42726 170.6544,79.66386 170.9418,81.07026" id="Fill-26" fill="#333333"></path>
                <polygon id="Fill-28" fill="#333333" points="172.55604 75.43878 169.59024 76.20018 169.29264 75.03798 172.25844 74.27658"></polygon>
                <path d="M157.86426,85.19406 C158.43486,86.51046 158.45226,87.77106 157.90326,88.00866 C157.35486,88.24626 156.44766,87.37146 155.87706,86.05506 C155.30706,84.73746 155.28966,83.47746 155.83806,83.23986 C156.38646,83.00226 157.29426,83.87706 157.86426,85.19406" id="Fill-30" fill="#333333"></path>
                <polygon id="Fill-32" fill="#333333" points="153.26586 81.45462 152.89206 80.31402 155.80206 79.36002 156.17586 80.50062"></polygon>
                <path d="M161.95002,98.80188 C161.58522,98.35428 161.67642,97.69068 162.14622,97.35528 C163.32042,96.51528 165.66042,95.01408 168.21822,94.31748 C170.74242,93.63108 173.30562,93.77568 174.65142,93.93108 C175.21662,93.99648 175.61802,94.51368 175.53402,95.07648 C175.28022,96.77448 174.23142,100.14348 169.92582,101.31468 C165.64662,102.47928 163.04022,100.14108 161.95002,98.80188" id="Fill-34" fill="#333333"></path>
            </g>
            <g id="Group-39" transform="translate(161.400000, 94.027200)">
                <mask id="mask-8" fill="white">
                    <use xlink:href="#path-7"></use>
                </mask>
                <g id="Clip-38"></g>
                <path d="M-0.11388,4.34934 C-0.11388,4.34934 12.78312,1.23294 15.60912,0.07134 L15.16272,-3.73446 L-0.87528,-1.33446 L-0.11388,4.34934 Z" id="Fill-37" fill="#F2F8F8" mask="url(#mask-8)"></path>
            </g>
            <g id="Group-44" transform="translate(27.000000, 115.027200)" fill="#8BC79C">
                <path d="M124.692,9.46752 C124.692,9.46752 114.0666,11.48352 110.3178,12.06132 C106.5684,12.63972 92.1684,18.03972 90.3684,20.43972 C88.5684,22.83972 88.5684,26.43972 88.5684,27.03972 C88.5684,27.63972 75.9684,34.83972 77.1684,37.23972 C78.3684,39.63972 63.9684,47.43972 62.7684,49.23972 C61.5684,51.03972 54.9684,54.63972 53.7684,54.63972 C52.5684,54.63972 51.939,56.84412 51.939,56.84412 L50.1684,54.03972 L11.1684,21.63972 L0.3684,39.03972 C0.3684,39.03972 18.3684,55.23972 19.5684,57.03972 C20.7684,58.83972 39.9684,82.83972 42.9684,84.03972 C45.9684,85.23972 53.7684,88.23972 61.5684,84.03972 C69.3684,79.83972 101.7684,55.83972 101.7684,55.83972 L119.7684,87.63972 L92.7684,128.43972 L152.1684,123.03972 L144.3684,43.23972 L124.692,9.46752 Z" id="Fill-40"></path>
                <path d="M162.62796,1.32708 L175.04316,0.49308 C175.04316,0.49308 190.68696,1.45188 194.22756,3.14568 C197.76816,4.83948 203.16816,5.43948 204.36816,6.03948 C205.56816,6.63948 207.96816,9.63948 207.96816,12.63948 C207.96816,15.63948 207.96816,17.43948 208.56816,18.63948 C209.16816,19.83948 215.76816,25.83948 221.76816,30.63948 C227.76816,35.43948 238.56816,43.83948 238.56816,43.83948 L240.96816,46.23948 L243.96816,43.83948 C243.96816,43.83948 254.16816,40.83948 256.56816,38.43948 C258.96816,36.03948 283.56816,13.23948 283.56816,13.23948 L294.96816,27.03948 C294.96816,27.03948 279.86316,40.25868 278.11536,43.54908 C276.36816,46.83948 256.56816,71.43948 256.56816,71.43948 C256.56816,71.43948 248.76816,76.83948 246.96816,76.23948 C245.16816,75.63948 236.76816,74.43948 236.76816,74.43948 L204.36816,55.83948 L199.56816,49.23948 L221.16816,103.83948 L187.56816,117.63948 L186.36816,46.23948 L162.62796,1.32708 Z" id="Fill-42"></path>
            </g>
        </g>
    </g>
</svg>