<svg width="282" height="308" viewBox="0 0 282 308" fill="none" xmlns="http://www.w3.org/2000/svg">
<mask id="mask0" mask-type="alpha" maskUnits="userSpaceOnUse" x="174" y="204" width="108" height="97">
<path d="M174.75 204.399H281.06V300.808H174.75V204.399Z" fill="white"/>
</mask>
<g mask="url(#mask0)">
<path fill-rule="evenodd" clip-rule="evenodd" d="M257.131 217.292C234.653 195.89 197.528 210.486 160.943 222.612V229.168C181.163 243.874 188.121 274.725 190.17 300.742C253.448 288.121 284.833 243.666 257.131 217.292Z" fill="#EBEBEB"/>
</g>
<mask id="mask1" mask-type="alpha" maskUnits="userSpaceOnUse" x="0" y="222" width="109" height="73">
<path d="M0.808594 222.983H108.567V294.83H0.808594V222.983Z" fill="white"/>
</mask>
<g mask="url(#mask1)">
<path fill-rule="evenodd" clip-rule="evenodd" d="M107.323 231.736C63.0751 228.351 12.4478 209.938 1.87985 239.582C-6.5183 263.14 35.5488 284.165 89.9506 294.83C97.8062 273.29 106.569 251.936 108.174 244.717C108.963 241.162 108.504 236.627 107.323 231.736Z" fill="#EBEBEB"/>
</g>
<path fill-rule="evenodd" clip-rule="evenodd" d="M118.076 8.64589C121.086 9.31661 124.344 12.3427 124.344 12.3427L127.948 6.90311L131.485 12.3854C131.485 12.3854 134.779 9.39905 137.795 8.76535C137.795 8.76535 135.423 11.6109 135.1 14.4339C134.936 15.868 135.274 18.983 137.774 20.4249L137.864 20.4609C146.025 24.2899 151.662 32.5886 151.596 42.1944C151.504 55.3509 140.763 65.9455 127.6 65.8528C114.44 65.7629 103.845 55.0202 103.936 41.8605C104.004 32.3368 109.665 24.1782 117.767 20.4199C117.84 20.3845 117.917 20.3471 117.993 20.3089L117.958 20.3052C120.476 18.8933 120.852 15.7844 120.704 14.3462C120.415 11.5194 118.076 8.64589 118.076 8.64589Z" fill="#333333"/>
<path fill-rule="evenodd" clip-rule="evenodd" d="M124.576 41.9429C147.26 37.7652 169.036 52.7673 173.213 75.4521C177.391 98.1362 162.389 119.911 139.704 124.089C117.02 128.267 95.2445 113.264 91.067 90.5806C86.8893 67.8966 101.892 46.1201 124.576 41.9429Z" fill="#333333"/>
<path fill-rule="evenodd" clip-rule="evenodd" d="M127.009 112.876C127.009 112.876 129.636 146.165 109.488 148.793C89.3397 151.421 127.009 210.99 136.645 210.114C146.281 209.238 163.802 145.289 163.802 145.289C163.802 145.289 141.025 129.52 148.909 115.504L127.009 112.876Z" fill="#BA9579"/>
<path fill-rule="evenodd" clip-rule="evenodd" d="M128.919 231.867C143.281 230.646 158.965 225.872 174.75 220.64V205.296C174.75 205.296 181.758 199.164 178.254 183.395C178.254 183.395 193.147 156.239 184.386 150.983C175.627 145.727 155.504 138.023 155.504 138.023C155.504 138.023 157.23 177.263 138.833 186.023C138.833 186.023 115.232 167.319 121.338 141.193C121.338 141.193 97.6604 142.223 88.0244 151.859C78.3884 161.495 96.9999 190.89 96.9999 190.89C96.9999 190.89 103.264 214.929 107.322 231.736C114.776 232.305 122.05 232.452 128.919 231.867Z" fill="#EA4F51"/>
<mask id="mask2" mask-type="alpha" maskUnits="userSpaceOnUse" x="75" y="220" width="129" height="88">
<path d="M75.3574 220.64H203.977V307.183H75.3574V220.64Z" fill="white"/>
</mask>
<g mask="url(#mask2)">
<path fill-rule="evenodd" clip-rule="evenodd" d="M169.292 225.894L174.751 220.64C158.966 225.873 143.282 230.645 128.919 231.867C122.05 232.452 114.776 232.306 107.323 231.736C108.504 236.627 108.963 241.162 108.173 244.717C106.569 251.936 89.377 271.414 81.5215 292.954C109.043 299.933 142.466 302.879 169.543 302.495C181.316 302.328 181.32 302.534 191.543 300.495C189.494 274.479 178.168 241.18 169.292 225.894Z" fill="#EA4F51"/>
</g>
<path fill-rule="evenodd" clip-rule="evenodd" d="M126.765 64.0068C139.569 60.9135 153.213 71.9135 157.238 88.5753C161.263 105.237 154.146 121.252 141.341 124.346C128.537 127.439 114.893 116.439 110.868 99.7773C106.843 83.115 113.96 67.1001 126.765 64.0068Z" fill="#C19B7C"/>
<path fill-rule="evenodd" clip-rule="evenodd" d="M131.367 62.4892C148.028 59.4207 162.555 62.4656 163.812 69.291C165.069 76.1161 152.58 84.1373 135.919 87.2053C119.257 90.2741 104.731 87.2281 103.474 80.403C102.217 73.5778 114.705 65.5578 131.367 62.4892Z" fill="#333333"/>
<path fill-rule="evenodd" clip-rule="evenodd" d="M143.017 90.3923L139.998 90.2994L140.036 89.1171L143.054 89.2101L143.017 90.3923Z" fill="#333333"/>
<path fill-rule="evenodd" clip-rule="evenodd" d="M123.467 93.3816L123.184 92.2319L126.117 91.5107L126.399 92.6603L123.467 93.3816Z" fill="#333333"/>
<path fill-rule="evenodd" clip-rule="evenodd" d="M129.008 109.679L143.337 108.636C143.788 108.603 144.154 108.998 144.083 109.444C143.785 111.31 142.501 115.586 136.959 116.292C131.371 117.004 129.114 112.572 128.4 110.626C128.239 110.186 128.541 109.714 129.008 109.679Z" fill="#333333"/>
<path d="M123.826 98.6236C123.729 99.0204 123.972 99.4207 124.369 99.5177C124.766 99.6147 125.166 99.3717 125.263 98.9749L123.826 98.6236ZM128.002 98.4319C128.276 98.7351 128.744 98.7591 129.047 98.4854C129.35 98.2118 129.374 97.7441 129.1 97.4408L128.002 98.4319ZM125.263 98.9749C125.341 98.6572 125.747 98.2584 126.424 98.0923C127.079 97.9316 127.676 98.0701 128.002 98.4319L129.1 97.4408C128.287 96.539 127.05 96.4156 126.071 96.6556C125.115 96.8901 124.088 97.5546 123.826 98.6236L125.263 98.9749Z" fill="#333333"/>
<path d="M143.367 96.817C143.557 97.1784 144.004 97.317 144.366 97.1266C144.727 96.9361 144.866 96.4888 144.675 96.1274L143.367 96.817ZM139.272 96.26C139.08 96.6206 139.217 97.0685 139.578 97.2604C139.938 97.4523 140.386 97.3155 140.578 96.9549L139.272 96.26ZM144.675 96.1274C144.162 95.1538 143.004 94.7586 142.02 94.7631C141.013 94.7678 139.843 95.1876 139.272 96.26L140.578 96.9549C140.807 96.5247 141.352 96.2455 142.027 96.2424C142.724 96.2392 143.214 96.5276 143.367 96.817L144.675 96.1274Z" fill="#333333"/>
<mask id="mask3" mask-type="alpha" maskUnits="userSpaceOnUse" x="128" y="105" width="18" height="14">
<path d="M137.006 116.308C144.135 115.421 143.682 108.569 143.682 108.569L128.19 109.734C128.19 109.734 129.878 117.195 137.006 116.308Z" fill="white"/>
</mask>
<g mask="url(#mask3)">
<path fill-rule="evenodd" clip-rule="evenodd" d="M128.766 109.647C128.766 109.647 128.367 111.461 132.263 111.505C136.16 111.55 143.591 111.513 143.528 108.6L128.766 109.647Z" fill="white"/>
</g>
<path fill-rule="evenodd" clip-rule="evenodd" d="M124.402 134.888C124.402 134.888 100.058 141.339 95.3246 143.705C90.5909 146.072 84.7766 146.999 83.0015 152.916C81.2263 158.833 81.8981 158.977 81.8981 158.977L93.3567 197.788C93.3567 197.788 97.9659 232.235 96.8079 249.562L88.4254 268.3C88.4254 268.3 92.1729 273.132 102.232 270.765C112.291 268.399 124.421 268.3 124.421 268.3L116.034 197.551L124.402 134.888Z" fill="#F8CACA"/>
<path fill-rule="evenodd" clip-rule="evenodd" d="M120.902 207.71C120.902 207.71 141.832 194.443 144.446 204.785C145.859 212.609 137.197 221.45 121.234 214.018L120.902 207.71Z" fill="#BA9579"/>
<path fill-rule="evenodd" clip-rule="evenodd" d="M125.201 208.168C125.201 208.168 128.131 191.913 131.676 191.368C135.22 190.822 134.535 204.031 128.455 209.321L125.201 208.168Z" fill="#BA9579"/>
<path fill-rule="evenodd" clip-rule="evenodd" d="M98.7809 147.492C98.7809 147.492 87.8549 142.78 79.0567 157.354C70.2584 171.929 51.4442 218.991 61.0595 227.373C75.0759 240.514 128.366 217.758 128.366 217.758L125.901 202.965L82.7554 209.375L99.2738 168.202L98.7809 147.492Z" fill="#F8CACA"/>
<path fill-rule="evenodd" clip-rule="evenodd" d="M178.617 147.947C178.617 147.947 186.136 145.738 194.934 160.313C203.733 174.887 202.7 205.307 203.81 210.608C206.645 208.389 209.727 205.184 209.727 205.184L214.781 221.21C214.781 221.21 202.454 236.989 192.469 229.346C182.484 221.703 180.142 173.626 180.142 173.626L178.617 147.947Z" fill="#F8CACA"/>
<path fill-rule="evenodd" clip-rule="evenodd" d="M152.788 134.888C152.788 134.888 171.656 141.93 177.573 143.705C183.49 145.48 184.674 148.439 187.04 149.031C189.407 149.622 191.182 156.723 190.591 159.09C189.999 161.457 175.703 230.332 175.703 230.332L190.496 268.3C190.496 268.3 181.029 269.483 175.703 268.3C170.378 267.116 151.049 264.848 151.049 264.848L158.047 196.959L152.788 134.888Z" fill="#F8CACA"/>
<path fill-rule="evenodd" clip-rule="evenodd" d="M215.174 206.248C210.488 203.413 202.353 202.303 201.367 208.713C200.381 215.123 206.52 230.455 215.174 221.78C217.861 215.662 216.505 211.718 215.174 206.248Z" fill="#BA9579"/>
<path fill-rule="evenodd" clip-rule="evenodd" d="M202.347 211.074C202.347 211.074 205.278 194.819 208.822 194.274C212.367 193.728 211.682 206.937 205.602 212.227L202.347 211.074Z" fill="#BA9579"/>
</svg>
