<?xml version="1.0" encoding="UTF-8"?>
<svg width="48px" height="48px" viewBox="0 0 48 48" version="1.1" xmlns="http://www.w3.org/2000/svg" xmlns:xlink="http://www.w3.org/1999/xlink">
    <!-- Generator: Sketch 63.1 (92452) - https://sketch.com -->
    <title>Icons/balloon@1x</title>
    <desc>Created with Sketch.</desc>
    <defs>
        <path d="M19.1284,34.8833 L16.2654,34.8833 L15.6284,34.8833 L12.7644,34.8833 L11.7264,32.2143 L15.6284,32.2143 L16.2654,32.2143 L20.1664,32.2143 L19.1284,34.8833 Z M17.8944,37.5073 L16.0334,37.5073 L15.8594,37.5073 L13.9984,37.5073 L14.4724,36.3833 L15.6284,36.3833 L16.2654,36.3833 L17.4204,36.3833 L17.8944,37.5073 Z M19.2004,43.5283 L16.0334,43.5283 L15.8594,43.5283 L12.6924,43.5283 L12.6924,39.0073 L15.8594,39.0073 L16.0334,39.0073 L19.2004,39.0073 L19.2004,43.5283 Z M1.5004,14.7373 C1.5004,12.4743 2.6594,10.5433 3.9544,9.0903 C3.3384,10.6463 2.9334,12.4963 2.9334,14.7373 C2.9334,18.1273 3.7664,21.1163 4.8874,23.6253 C2.9804,20.9113 1.5004,17.6553 1.5004,14.7373 L1.5004,14.7373 Z M30.3934,14.7373 C30.3934,17.6553 28.9124,20.9133 27.0054,23.6273 C28.1264,21.1173 28.9594,18.1273 28.9594,14.7373 C28.9594,12.4963 28.5554,10.6463 27.9394,9.0903 C29.2334,10.5433 30.3934,12.4743 30.3934,14.7373 L30.3934,14.7373 Z M25.5634,13.4023 C25.5634,9.9023 24.7434,7.3083 23.5854,5.3833 C25.5134,7.0453 27.4594,9.9093 27.4594,14.7373 C27.4594,21.4813 23.8304,26.6743 21.6354,29.2003 C23.3174,26.1913 25.5634,20.7973 25.5634,13.4023 L25.5634,13.4023 Z M21.2404,13.5563 C21.2404,7.9333 20.0054,4.5763 18.7514,2.6143 C21.1344,3.9873 24.0634,6.9723 24.0634,13.4023 C24.0634,23.1753 19.8574,29.4053 18.8864,30.7143 L18.3614,30.7143 C19.2584,28.3433 21.2404,22.1363 21.2404,13.5563 L21.2404,13.5563 Z M15.1444,30.7143 C14.4754,29.0413 12.1524,22.5903 12.1524,13.5563 C12.1524,5.3393 14.9114,2.4703 15.9454,1.6843 C16.9864,2.4763 19.7404,5.3463 19.7404,13.5563 C19.7404,22.5903 17.4184,29.0413 16.7484,30.7143 L16.2654,30.7143 L15.6284,30.7143 L15.1444,30.7143 Z M13.0064,30.7143 C12.0354,29.4053 7.8294,23.1753 7.8294,13.4023 C7.8294,6.9723 10.7584,3.9873 13.1414,2.6143 C11.8874,4.5763 10.6524,7.9333 10.6524,13.5563 C10.6524,22.1363 12.6344,28.3433 13.5314,30.7143 L13.0064,30.7143 Z M4.4334,14.7373 C4.4334,9.9103 6.3794,7.0463 8.3064,5.3833 C7.1494,7.3093 6.3294,9.9023 6.3294,13.4023 C6.3294,20.7973 8.5744,26.1913 10.2574,29.2003 C8.0624,26.6733 4.4334,21.4813 4.4334,14.7373 L4.4334,14.7373 Z M31.8934,14.7373 C31.8934,8.7563 25.4574,5.0293 25.1844,4.8733 L25.1824,4.8773 C23.0034,2.7173 20.6464,1.9553 20.2754,1.8473 C18.0724,0.3233 16.0064,0.0063 15.9614,0.0003 L15.9464,0.1113 L15.9314,0.0003 C15.8864,0.0063 13.8204,0.3233 11.6164,1.8473 C11.2444,1.9563 8.8884,2.7183 6.7114,4.8773 L6.7094,4.8733 C6.4354,5.0293 0.0004,8.7563 0.0004,14.7373 C0.0004,20.6153 5.0784,27.2283 8.7384,29.7563 C9.0384,30.1133 9.3214,30.4383 9.5784,30.7143 L9.5344,30.7143 L11.7384,36.3833 L12.8444,36.3833 L12.3704,37.5073 L10.6304,37.5073 L10.6304,39.0073 L11.1924,39.0073 L11.1924,45.0283 L15.8594,45.0283 L16.0334,45.0283 L20.7004,45.0283 L20.7004,39.0073 L21.2624,39.0073 L21.2624,37.5073 L19.5224,37.5073 L19.0484,36.3833 L20.1544,36.3833 L22.3584,30.7143 L22.3154,30.7143 C22.5704,30.4383 22.8554,30.1123 23.1554,29.7553 C26.8154,27.2273 31.8934,20.6153 31.8934,14.7373 L31.8934,14.7373 Z" id="path-1"></path>
    </defs>
    <g id="Icons/balloon" stroke="none" stroke-width="1" fill="none" fill-rule="evenodd">
        <g id="Group-3" transform="translate(8.000000, 1.000000)">
            <g id="Color/Charcoal">
                <mask id="mask-2" fill="white">
                    <use xlink:href="#path-1"></use>
                </mask>
                <use id="Mask" fill="#424242" xlink:href="#path-1"></use>
                <g mask="url(#mask-2)" fill="#333333" id="Rectangle-Copy-10">
                    <g transform="translate(-8.000000, -1.000000)">
                        <rect x="0" y="0" width="48" height="48"></rect>
                    </g>
                </g>
            </g>
        </g>
    </g>
</svg>