<?xml version="1.0" encoding="UTF-8" standalone="no"?>
<!DOCTYPE svg PUBLIC "-//W3C//DTD SVG 1.1//EN" "http://www.w3.org/Graphics/SVG/1.1/DTD/svg11.dtd">
<svg width="100%" height="100%" viewBox="0 0 192 512" version="1.1" xmlns="http://www.w3.org/2000/svg" xmlns:xlink="http://www.w3.org/1999/xlink" xml:space="preserve" xmlns:serif="http://www.serif.com/" style="fill-rule:evenodd;clip-rule:evenodd;stroke-linejoin:round;stroke-miterlimit:2;">
    <path d="M176,432C176,476.112 140.112,512 96,512C51.888,512 16,476.112 16,432C16,387.888 51.888,352 96,352C140.112,352 176,387.888 176,432ZM25.26,25.199L38.86,297.199C39.499,309.972 50.041,320 62.83,320L129.17,320C141.959,320 152.501,309.972 153.14,297.199L166.74,25.199C167.425,11.49 156.496,0 142.77,0L49.23,0C35.504,0 24.575,11.49 25.26,25.199Z" style="fill:rgb(248,202,202);fill-rule:nonzero;"/>
</svg>
