<?xml version="1.0" encoding="UTF-8"?>
<svg width="48px" height="48px" viewBox="0 0 48 48" version="1.1" xmlns="http://www.w3.org/2000/svg" xmlns:xlink="http://www.w3.org/1999/xlink">
    <!-- Generator: Sketch 63.1 (92452) - https://sketch.com -->
    <title>Icons/Incomplete@1x</title>
    <desc>Created with Sketch.</desc>
    <defs>
        <path d="M15.958,31.917 C7.159,31.917 2.20268248e-13,24.758 2.20268248e-13,15.959 C2.20268248e-13,7.159 7.159,-2.84217094e-13 15.958,-2.84217094e-13 C17.699,-2.84217094e-13 19.41,0.279 21.044,0.829 C21.568,1.004 21.85,1.572 21.674,2.095 C21.499,2.618 20.929,2.901 20.408,2.724 C18.978,2.244 17.481,2 15.958,2 C8.262,2 2,8.262 2,15.959 C2,23.655 8.262,29.917 15.958,29.917 C23.655,29.917 29.916,23.655 29.916,15.959 C29.916,15.406 30.364,14.959 30.916,14.959 C31.469,14.959 31.916,15.406 31.916,15.959 C31.916,24.758 24.757,31.917 15.958,31.917" id="path-1"></path>
        <path d="M6.47831764,2.60551685 C15.2735242,2.60551685 22.4034478,9.7354405 22.4034478,18.530647 C22.4034478,27.3258536 15.2735242,34.4557772 6.47831764,34.4557772 C5.92603289,34.4557772 5.47831764,34.008062 5.47831764,33.4557772 C5.47831764,32.9034925 5.92603289,32.4557772 6.47831764,32.4557772 C14.1689547,32.4557772 20.4034478,26.2212841 20.4034478,18.530647 C20.4034478,10.84001 14.1689547,4.60551685 6.47831764,4.60551685 C5.92603289,4.60551685 5.47831764,4.1578016 5.47831764,3.60551685 C5.47831764,3.0532321 5.92603289,2.60551685 6.47831764,2.60551685 Z" id="path-3"></path>
    </defs>
    <g id="Icons/Incomplete" stroke="none" stroke-width="1" fill="none" fill-rule="evenodd">
        <g id="ok" transform="translate(3.000000, 3.000000)">
            <g id="Icon-Shade" transform="translate(5.000000, 5.000000)">
                <mask id="mask-2" fill="white">
                    <use xlink:href="#path-1"></use>
                </mask>
                <use id="Mask" fill="#C0C0C0" xlink:href="#path-1"></use>
            </g>
            <g id="Color/Charcoal">
                <mask id="mask-4" fill="white">
                    <use xlink:href="#path-3"></use>
                </mask>
                <use id="Mask" fill="#424242" fill-rule="nonzero" transform="translate(13.940883, 18.530647) rotate(-161.000000) translate(-13.940883, -18.530647) " xlink:href="#path-3"></use>
                <g mask="url(#mask-4)" fill="#333333" id="Rectangle-Copy-10">
                    <g transform="translate(-3.000000, -3.000000)">
                        <rect x="0" y="0" width="48" height="48"></rect>
                    </g>
                </g>
            </g>
        </g>
    </g>
</svg>