<?xml version="1.0" encoding="utf-8"?>
<!-- Generator: Adobe Illustrator 24.0.1, SVG Export Plug-In . SVG Version: 6.00 Build 0)  -->
<svg version="1.1" id="Calque_1" focusable="false" xmlns="http://www.w3.org/2000/svg" xmlns:xlink="http://www.w3.org/1999/xlink"
	 x="0px" y="0px" viewBox="0 0 192 512" style="enable-background:new 0 0 192 512;" xml:space="preserve">
<style type="text/css">
	.st0{fill:#B4B4B4;}
</style>
<path class="st0" d="M96,184c39.8,0,72,32.2,72,72s-32.2,72-72,72s-72-32.2-72-72S56.2,184,96,184z M24,80c0,39.8,32.2,72,72,72
	s72-32.2,72-72S135.8,8,96,8S24,40.2,24,80z M24,432c0,39.8,32.2,72,72,72s72-32.2,72-72s-32.2-72-72-72S24,392.2,24,432z"/>
</svg>
