<?xml version="1.0" encoding="UTF-8"?>
<svg width="48px" height="48px" viewBox="0 0 48 48" version="1.1" xmlns="http://www.w3.org/2000/svg" xmlns:xlink="http://www.w3.org/1999/xlink">
    <!-- Generator: Sketch 63.1 (92452) - https://sketch.com -->
    <title>Icons/Refresh@1x</title>
    <desc>Created with Sketch.</desc>
    <defs>
        <path d="M7.70578724,13.3 L7.70578724,13.3 C7.70578724,8.75 11.3807872,5.075 15.9307872,5.075 C16.9457872,5.075 17.8907872,5.285 18.8007872,5.6 C19.6757872,5.95 20.6557872,5.635 21.2157872,4.9 C22.0557872,3.78 21.5657872,2.205 20.2707872,1.715 C18.9057872,1.225 17.4707872,0.945 15.9657872,0.945 C9.14078724,0.945 3.61078724,6.475 3.61078724,13.3 L0.950787238,13.3 C0.355787238,13.3 0.00578723762,14 0.355787238,14.455 L5.08078724,20.755 C5.36078724,21.14 5.95578724,21.14 6.23578724,20.755 L10.9607872,14.455 C11.3107872,13.965 10.9957872,13.3 10.3657872,13.3 L7.70578724,13.3 Z M30.9457872,13.3 L28.2857872,13.3 C28.2857872,20.125 22.7557872,25.655 15.9307872,25.655 C14.4257872,25.655 12.9557872,25.375 11.6257872,24.885 C10.3307872,24.395 9.84078724,22.82 10.6807872,21.7 C11.2407872,20.965 12.2207872,20.685 13.0957872,21 C14.0057872,21.35 14.9507872,21.525 15.9657872,21.525 C20.4807872,21.525 24.1557872,17.85 24.1557872,13.3 L21.5307872,13.3 C20.9357872,13.3 20.5857872,12.6 20.9357872,12.145 L25.6607872,5.845 C25.9407872,5.46 26.5357872,5.46 26.8157872,5.845 L31.5407872,12.145 C31.8907872,12.6 31.5407872,13.3 30.9457872,13.3 L30.9457872,13.3 Z" id="path-1"></path>
    </defs>
    <g id="Icons/Refresh" stroke="none" stroke-width="1" fill="none" fill-rule="evenodd">
        <g id="Icon-Shade" transform="translate(8.000000, 11.000000)">
            <mask id="mask-2" fill="white">
                <use xlink:href="#path-1"></use>
            </mask>
            <use id="Mask" fill="#424242" xlink:href="#path-1"></use>
            <g id="Color/Charcoal" mask="url(#mask-2)" fill="#333333">
                <g transform="translate(-8.000000, -11.000000)" id="Rectangle-Copy-10">
                    <rect x="0" y="0" width="48" height="48"></rect>
                </g>
            </g>
        </g>
    </g>
</svg>