<?xml version="1.0" encoding="utf-8"?>
<!-- Generator: Adobe Illustrator 24.0.1, SVG Export Plug-In . SVG Version: 6.00 Build 0)  -->
<svg version="1.1" id="Calque_1" xmlns="http://www.w3.org/2000/svg" xmlns:xlink="http://www.w3.org/1999/xlink" x="0px" y="0px"
	 viewBox="0 0 18 19" style="enable-background:new 0 0 18 19;" xml:space="preserve">
<style type="text/css">
	.st0{fill:#A3A3A3;}
</style>
<title>Shape@1x</title>
<desc>Created with Sketch.</desc>
<g id="Maquette">
	<g id="Etape-1---mon-projet-connu-wdg" transform="translate(-385.000000, -945.000000)">
		<g id="Save-for-later" transform="translate(385.000000, 945.000000)">
			<g id="save">
				<path id="Shape" class="st0" d="M4.5,17v-4.5h9V17H4.5z M15,17v-4.9c0-0.6-0.5-1.1-1.1-1.1H4.1C3.5,11,3,11.5,3,12.1V17H1.5V2H3
					v4.9C3,7.5,3.5,8,4.1,8h6.8C11.5,8,12,7.5,12,6.9V2c0.2,0,0.7,0.2,0.9,0.4l3.3,3.3c0.2,0.2,0.4,0.6,0.4,0.9V17H15z M10.5,6.1
					c0,0.2-0.2,0.4-0.4,0.4H7.9c-0.2,0-0.4-0.2-0.4-0.4V2.4C7.5,2.2,7.7,2,7.9,2h2.3c0.2,0,0.4,0.2,0.4,0.4V6.1z M18,6.5
					c0-0.6-0.4-1.5-0.8-1.9l-3.3-3.3c-0.4-0.4-1.3-0.8-1.9-0.8H1.1C0.5,0.5,0,1,0,1.6v15.8c0,0.6,0.5,1.1,1.1,1.1h15.8
					c0.6,0,1.1-0.5,1.1-1.1V6.5z"/>
			</g>
		</g>
	</g>
</g>
</svg>
