<?xml version="1.0" encoding="UTF-8" standalone="no"?>
<!DOCTYPE svg PUBLIC "-//W3C//DTD SVG 1.1//EN" "http://www.w3.org/Graphics/SVG/1.1/DTD/svg11.dtd">
<svg width="100%" height="100%" viewBox="0 0 48 48" version="1.1" xmlns="http://www.w3.org/2000/svg" xmlns:xlink="http://www.w3.org/1999/xlink" xml:space="preserve" xmlns:serif="http://www.serif.com/" style="fill-rule:evenodd;clip-rule:evenodd;stroke-linejoin:round;stroke-miterlimit:2;">
    <g transform="matrix(1,0,0,1,8,1)">
        <g id="Icons-balloon" serif:id="Icons/balloon">
            <g id="Group-3">
                <g id="Color-Charcoal" serif:id="Color/Charcoal">
                    <path id="Mask" d="M19.128,34.883L12.764,34.883L11.726,32.214L20.166,32.214L19.128,34.883ZM17.894,37.507L13.998,37.507L14.472,36.383L17.42,36.383L17.894,37.507ZM19.2,43.528L12.692,43.528L12.692,39.007L19.2,39.007L19.2,43.528ZM1.5,14.737C1.5,12.474 2.659,10.543 3.954,9.09C3.338,10.646 2.933,12.496 2.933,14.737C2.933,18.127 3.766,21.116 4.887,23.625C2.98,20.911 1.5,17.655 1.5,14.737ZM30.393,14.737C30.393,17.655 28.912,20.913 27.005,23.627C28.126,21.117 28.959,18.127 28.959,14.737C28.959,12.496 28.555,10.646 27.939,9.09C29.233,10.543 30.393,12.474 30.393,14.737ZM25.563,13.402C25.563,9.902 24.743,7.308 23.585,5.383C25.513,7.045 27.459,9.909 27.459,14.737C27.459,21.481 23.83,26.674 21.635,29.2C23.317,26.191 25.563,20.797 25.563,13.402ZM21.24,13.556C21.24,7.933 20.005,4.576 18.751,2.614C21.134,3.987 24.063,6.972 24.063,13.402C24.063,23.175 19.857,29.405 18.886,30.714L18.361,30.714C19.258,28.343 21.24,22.136 21.24,13.556ZM15.144,30.714C14.475,29.041 12.152,22.59 12.152,13.556C12.152,5.339 14.911,2.47 15.945,1.684C16.986,2.476 19.74,5.346 19.74,13.556C19.74,22.59 17.418,29.041 16.748,30.714L15.144,30.714ZM13.006,30.714C12.035,29.405 7.829,23.175 7.829,13.402C7.829,6.972 10.758,3.987 13.141,2.614C11.887,4.576 10.652,7.933 10.652,13.556C10.652,22.136 12.634,28.343 13.531,30.714L13.006,30.714ZM4.433,14.737C4.433,9.91 6.379,7.046 8.306,5.383C7.149,7.309 6.329,9.902 6.329,13.402C6.329,20.797 8.574,26.191 10.257,29.2C8.062,26.673 4.433,21.481 4.433,14.737ZM31.893,14.737C31.893,8.756 25.457,5.029 25.184,4.873L25.182,4.877C23.003,2.717 20.646,1.955 20.275,1.847C18.072,0.323 16.006,0.006 15.961,0L15.946,0.111L15.931,0C15.886,0.006 13.82,0.323 11.616,1.847C11.244,1.956 8.888,2.718 6.711,4.877L6.709,4.873C6.435,5.029 0,8.756 0,14.737C0,20.615 5.078,27.228 8.738,29.756C9.038,30.113 9.321,30.438 9.578,30.714L9.534,30.714L11.738,36.383L12.844,36.383L12.37,37.507L10.63,37.507L10.63,39.007L11.192,39.007L11.192,45.028L20.7,45.028L20.7,39.007L21.262,39.007L21.262,37.507L19.522,37.507L19.048,36.383L20.154,36.383L22.358,30.714L22.315,30.714C22.57,30.438 22.855,30.112 23.155,29.755C26.815,27.227 31.893,20.615 31.893,14.737Z" style="fill:rgb(179,218,225);"/>
                </g>
            </g>
        </g>
    </g>
</svg>
