<svg width="16" height="42" viewBox="0 0 16 42" fill="none" xmlns="http://www.w3.org/2000/svg">
<path d="M1.86589 34.4964H3.46176V22.9696H1.86589C0.98449 22.9696 0.27002 22.2552 0.27002 21.3738V17.562C0.27002 16.6806 0.98449 15.9661 1.86589 15.9661H10.8028C11.6842 15.9661 12.3986 16.6806 12.3986 17.562V34.4964H13.9945C14.8759 34.4964 15.5904 35.2109 15.5904 36.0923V39.9041C15.5904 40.7855 14.8759 41.5 13.9945 41.5H1.86589C0.98449 41.5 0.27002 40.7855 0.27002 39.9041V36.0923C0.27002 35.2109 0.98449 34.4964 1.86589 34.4964ZM7.93019 0.645752C4.7572 0.645752 2.18506 3.21789 2.18506 6.39088C2.18506 9.56387 4.7572 12.136 7.93019 12.136C11.1032 12.136 13.6753 9.56387 13.6753 6.39088C13.6753 3.21789 11.1031 0.645752 7.93019 0.645752Z" fill="#B3DAE1"/>
</svg>
