<?xml version="1.0" encoding="UTF-8"?>
<svg width="48px" height="48px" viewBox="0 0 48 48" version="1.1" xmlns="http://www.w3.org/2000/svg" xmlns:xlink="http://www.w3.org/1999/xlink">
    <!-- Generator: Sketch 63.1 (92452) - https://sketch.com -->
    <title>Icons/Warning@1x</title>
    <desc>Created with Sketch.</desc>
    <defs>
        <path d="M15.9285902,21.5527572 C15.9285902,21.8239632 15.7176518,22.0499676 15.4464467,22.0499676 L12.5535857,22.0499676 C12.2823797,22.0499676 12.0714422,21.8239632 12.0714422,21.5527572 L12.0714422,18.6900309 C12.0714422,18.4188249 12.2823797,18.1928205 12.5535857,18.1928205 L15.4464467,18.1928205 C15.7176518,18.1928205 15.9285902,18.4188249 15.9285902,18.6900309 L15.9285902,21.5527572 Z M15.8984555,15.917706 C15.8833886,16.1135766 15.6573842,16.2642465 15.3861782,16.2642465 L12.5987864,16.2642465 C12.3125144,16.2642465 12.0865091,16.1135766 12.0865091,15.917706 L11.8303709,9.0320949 C11.8303709,8.9416935 11.8755716,8.7910236 11.9810408,8.7156882 C12.0714422,8.6403537 12.2070452,8.5499514 12.3426482,8.5499514 L15.6573842,8.5499514 C15.7929872,8.5499514 15.9285902,8.6403537 16.0189916,8.7156882 C16.1244608,8.7910236 16.1696615,8.9115597 16.1696615,9.0019611 L15.8984555,15.917706 Z M15.687518,1.8451449 C15.3560444,1.2273984 14.7081641,0.8356572 14.0000162,0.8356572 C13.2918683,0.8356572 12.643988,1.2273984 12.3125144,1.8451449 L0.7410713,23.0594553 C0.4095977,23.647068 0.4246655,24.3702828 0.771206,24.9578955 C1.1177465,25.5455073 1.7505599,25.9071156 2.428574,25.9071156 L25.5714584,25.9071156 C26.2494725,25.9071156 26.8822859,25.5455073 27.2288264,24.9578955 C27.5753669,24.3702828 27.5904338,23.647068 27.2589602,23.0594553 L15.687518,1.8451449 Z" id="path-1"></path>
    </defs>
    <g id="Icons/Warning" stroke="none" stroke-width="1" fill="none" fill-rule="evenodd">
        <g id="warning" transform="translate(9.500000, 10.450000)">
            <g id="Color/Charcoal" transform="translate(0.500000, 0.550000)">
                <mask id="mask-2" fill="white">
                    <use xlink:href="#path-1"></use>
                </mask>
                <use id="Mask" fill="#FF0000" fill-rule="nonzero" xlink:href="#path-1"></use>
                <g mask="url(#mask-2)" fill="#333333" id="Rectangle-Copy-10">
                    <g transform="translate(-10.000000, -11.000000)">
                        <rect x="0" y="0" width="48" height="48"></rect>
                    </g>
                </g>
            </g>
        </g>
    </g>
</svg>