<svg width="352" height="320" viewBox="0 0 352 320" fill="none" xmlns="http://www.w3.org/2000/svg">
<path fill-rule="evenodd" clip-rule="evenodd" d="M230.904 156.625C235.953 162.685 223.834 183.892 223.834 183.892C225.854 186.922 229.893 210.15 224.844 226.309C222.046 235.261 221.109 254.753 220.829 270.359C287.498 244.588 325.492 196.783 309.783 167.923C302.163 153.926 262.096 148.411 215.265 150.173C221.85 151.577 228.517 153.762 230.904 156.625Z" fill="#F2F2F2"/>
<path fill-rule="evenodd" clip-rule="evenodd" d="M125.873 283.873C122.844 278.823 145.061 242.467 150.111 239.437C155.161 236.407 147.082 224.289 147.082 224.289C147.082 224.289 143.042 216.21 144.052 212.17C145.061 208.13 139.003 208.13 134.963 206.11C130.923 204.09 118.805 178.843 118.805 171.774C118.805 164.704 147.082 159.655 147.082 159.655C147.082 159.655 156.171 172.784 164.25 176.823C170.145 179.887 175.876 183.259 181.418 186.922C181.418 186.922 187.478 189.952 188.488 186.902C188.821 185.912 189.7 183.953 190.71 181.761C193.999 174.693 196.345 167.223 197.688 159.544L199.162 151.048C133.738 155.669 61.1443 173.54 46.2667 201.629C24.1885 243.313 63.9138 283.33 129.673 286.61C127.756 285.671 126.413 284.772 125.873 283.873Z" fill="#F2F2F2"/>
<mask id="mask0" mask-type="alpha" maskUnits="userSpaceOnUse" x="129" y="32" width="45" height="55">
<path d="M129.033 32.6H173.174V86.7288H129.033V32.6Z" fill="white"/>
</mask>
<g mask="url(#mask0)">
<path fill-rule="evenodd" clip-rule="evenodd" d="M136.898 35.7758C139.751 35.9042 143.209 38.1398 143.209 38.1398L145.621 32.6L149.729 37.0304C149.729 37.0304 152.252 33.7772 154.901 32.7146C154.901 32.7146 153.195 35.6906 153.355 38.3174C153.436 39.6518 154.244 42.4382 156.757 43.3514L156.844 43.37C164.902 45.5486 171.377 52.211 172.862 60.9818C174.893 72.995 166.801 84.3848 154.783 86.4158C142.766 88.4504 131.377 80.3564 129.344 68.3408C127.874 59.6444 131.725 51.2936 138.51 46.5632C138.571 46.5194 138.635 46.4726 138.698 46.4258L138.665 46.4282C140.735 44.7362 140.578 41.8394 140.212 40.5524C139.493 38.021 136.898 35.7758 136.898 35.7758Z" fill="#333333"/>
</g>
<path fill-rule="evenodd" clip-rule="evenodd" d="M148.18 65.0972C168.195 57.6398 190.467 67.8206 197.924 87.836C205.382 107.852 195.201 130.123 175.185 137.58C155.169 145.037 132.899 134.857 125.442 114.841C117.984 94.8254 128.165 72.5546 148.18 65.0972Z" fill="#333333"/>
<path fill-rule="evenodd" clip-rule="evenodd" d="M157.181 137.437C157.181 137.437 162.23 153.596 145.062 162.684C127.893 171.774 159.2 193.991 159.2 193.991L183.438 203.081L210.705 190.962L205.656 149.555C205.656 149.555 182.428 157.635 182.428 128.348L157.181 137.437Z" fill="#BA9579"/>
<path fill-rule="evenodd" clip-rule="evenodd" d="M156.837 83.7851C168.238 80.7107 180.968 91.1483 185.269 107.099C189.571 123.05 183.815 138.473 172.414 141.548C161.012 144.623 148.282 134.185 143.981 118.234C139.68 102.283 145.435 86.8595 156.837 83.7851Z" fill="#C19B7C"/>
<path fill-rule="evenodd" clip-rule="evenodd" d="M129.671 166.664C126.419 165.32 122.683 167.401 120.501 170.157C118.319 172.915 117.067 176.318 114.916 179.096C112.492 182.205 109.069 184.347 105.878 186.68C101.71 189.734 97.863 193.202 94.395 197.031C92.5572 199.051 90.7692 201.252 88.335 202.605C84.4674 204.777 79.5798 204.393 75.4998 202.605C71.4198 200.819 67.9962 197.93 64.6536 195.021C54.7158 186.356 44.913 177.493 35.2446 168.431C28.3674 162.008 18.4602 158.776 9.10856 157.746C6.82616 157.494 4.25096 157.483 2.55416 159.028C1.43576 160.149 0.808165 161.667 0.807565 163.25C0.595165 168.512 5.06877 172.895 9.89637 175.026C14.7234 177.156 20.076 177.803 24.9336 179.823C29.5482 181.764 33.5904 184.851 36.6792 188.79C40.0722 193.113 44.1828 196.647 47.4138 201.081C48.8886 203.101 50.1912 205.232 51.6054 207.292C55.0356 212.08 58.7736 216.641 62.7948 220.946C67.4712 226.147 73.1868 231.782 80.1558 231.257C83.0634 231.045 85.7502 229.742 88.3656 228.459C96.5358 224.42 104.777 220.38 111.937 214.776C116.128 211.493 119.915 207.706 124.308 204.676C128.509 201.798 133.307 199.626 136.709 195.819C140.636 191.347 142.163 185.254 140.81 179.459C139.297 173.69 135.177 168.957 129.671 166.664Z" fill="#BA9579"/>
<mask id="mask1" mask-type="alpha" maskUnits="userSpaceOnUse" x="210" y="147" width="141" height="75">
<path d="M210.434 147.521H350.968V221.192H210.434V147.521Z" fill="white"/>
</mask>
<g mask="url(#mask1)">
<path fill-rule="evenodd" clip-rule="evenodd" d="M222.057 156.564C225.309 155.222 229.045 157.302 231.226 160.059C233.408 162.816 234.66 166.219 236.812 168.996C239.235 172.107 242.659 174.248 245.85 176.58C250.018 179.634 253.865 183.102 257.333 186.932C259.17 188.952 260.958 191.153 263.392 192.507C267.26 194.678 272.148 194.294 276.228 192.507C280.308 190.719 283.732 187.831 287.074 184.923C297.039 176.224 306.855 167.36 316.523 158.331C323.4 151.908 333.308 148.677 342.66 147.647C344.942 147.395 347.517 147.384 349.214 148.929C350.332 150.05 350.961 151.568 350.961 153.151C351.173 158.412 346.699 162.795 341.872 164.927C337.044 167.057 331.692 167.703 326.835 169.724C322.219 171.665 318.177 174.752 315.089 178.691C311.695 183.014 307.585 186.549 304.354 190.982C302.879 193.002 301.576 195.132 300.163 197.193C296.719 201.983 292.968 206.544 288.933 210.847C284.257 216.048 278.541 221.683 271.572 221.157C268.664 220.946 265.977 219.643 263.362 218.36C255.192 214.321 246.951 210.281 239.791 204.677C235.599 201.394 231.813 197.607 227.419 194.577C223.218 191.699 218.421 189.527 215.018 185.72C211.091 181.248 209.564 175.155 210.918 169.36C212.431 163.59 216.551 158.858 222.057 156.564Z" fill="#BA9579"/>
</g>
<path fill-rule="evenodd" clip-rule="evenodd" d="M199.597 148.546L199.162 151.048C204.592 150.664 209.972 150.372 215.265 150.173C207.911 148.606 200.662 148.012 199.597 148.546Z" fill="#333333"/>
<mask id="mask2" mask-type="alpha" maskUnits="userSpaceOnUse" x="118" y="150" width="115" height="137">
<path d="M118.804 150.173H232.134V286.827H118.804V150.173Z" fill="white"/>
</mask>
<g mask="url(#mask2)">
<path fill-rule="evenodd" clip-rule="evenodd" d="M177.486 282.874C192.954 279.81 207.465 275.525 220.829 270.359C221.109 254.753 222.046 235.261 224.844 226.309C229.894 210.15 225.854 186.922 223.834 183.892C223.834 183.892 235.953 162.685 230.903 156.625C228.518 153.762 221.849 151.577 215.265 150.173C209.972 150.372 204.592 150.664 199.162 151.048L197.688 159.544C196.345 167.223 193.999 174.693 190.709 181.762C189.699 183.953 188.821 185.912 188.488 186.902C187.477 189.952 181.418 186.922 181.418 186.922C175.875 183.259 170.145 179.887 164.249 176.823C156.171 172.784 147.082 159.655 147.082 159.655C147.082 159.655 118.804 164.704 118.804 171.774C118.804 178.843 130.923 204.09 134.963 206.11C139.002 208.13 145.061 208.13 144.052 212.17C143.042 216.21 147.082 224.289 147.082 224.289C147.082 224.289 155.161 236.407 150.111 239.437C145.061 242.467 122.844 278.823 125.873 283.873C126.413 284.772 127.756 285.671 129.673 286.61C144.435 287.346 160.504 286.239 177.486 282.874Z" fill="#EA4F51"/>
</g>
<path fill-rule="evenodd" clip-rule="evenodd" d="M157.676 81.647C172.378 76.1696 186.115 76.6112 188.359 82.634C190.603 88.6562 180.504 97.979 165.802 103.456C151.1 108.934 137.363 108.492 135.119 102.469C132.875 96.4472 142.974 87.1244 157.676 81.647Z" fill="#333333"/>
<path fill-rule="evenodd" clip-rule="evenodd" d="M171.741 113.497C172.029 114.903 172.738 115.945 173.324 115.825C173.91 115.705 174.151 114.468 173.863 113.062C173.575 111.657 172.866 110.614 172.28 110.734C171.695 110.854 171.454 112.091 171.741 113.497Z" fill="#333333"/>
<path fill-rule="evenodd" clip-rule="evenodd" d="M173.356 107.866L170.39 108.627L170.092 107.465L173.058 106.704L173.356 107.866Z" fill="#333333"/>
<path fill-rule="evenodd" clip-rule="evenodd" d="M158.664 117.621C159.235 118.938 159.252 120.198 158.703 120.436C158.155 120.673 157.248 119.799 156.677 118.482C156.107 117.165 156.09 115.905 156.638 115.667C157.186 115.429 158.094 116.304 158.664 117.621Z" fill="#333333"/>
<path fill-rule="evenodd" clip-rule="evenodd" d="M154.066 113.882L153.692 112.741L156.602 111.787L156.976 112.928L154.066 113.882Z" fill="#333333"/>
<path fill-rule="evenodd" clip-rule="evenodd" d="M162.75 131.229C162.385 130.781 162.476 130.118 162.946 129.782C164.12 128.942 166.46 127.441 169.018 126.745C171.542 126.058 174.106 126.203 175.451 126.358C176.017 126.424 176.418 126.941 176.334 127.504C176.08 129.202 175.031 132.571 170.726 133.742C166.447 134.906 163.84 132.568 162.75 131.229Z" fill="#333333"/>
<mask id="mask3" mask-type="alpha" maskUnits="userSpaceOnUse" x="162" y="126" width="15" height="9">
<path d="M169.017 126.745C166.46 127.441 164.12 128.943 162.946 129.782C162.476 130.118 162.384 130.781 162.749 131.229C163.84 132.568 166.446 134.907 170.725 133.742C175.031 132.571 176.08 129.202 176.334 127.503C176.418 126.941 176.016 126.424 175.451 126.358C174.882 126.292 174.098 126.229 173.19 126.229C171.948 126.229 170.476 126.348 169.017 126.745Z" fill="white"/>
</mask>
<g mask="url(#mask3)">
<path fill-rule="evenodd" clip-rule="evenodd" d="M162.086 130.377C162.086 130.377 174.983 127.26 177.809 126.099L177.362 122.293L161.324 124.693L162.086 130.377Z" fill="#F2F8F8"/>
</g>
<path fill-rule="evenodd" clip-rule="evenodd" d="M152.492 156.495C152.492 156.495 141.867 158.511 138.118 159.089C134.368 159.667 119.968 165.067 118.168 167.467C116.368 169.867 116.368 173.467 116.368 174.067C116.368 174.667 103.768 181.867 104.968 184.267C106.168 186.667 91.7685 194.467 90.5685 196.267C89.3685 198.067 82.7685 201.667 81.5685 201.667C80.3685 201.667 79.7391 203.871 79.7391 203.871L77.9685 201.067L38.9685 168.667L28.1685 186.067C28.1685 186.067 46.1685 202.267 47.3685 204.067C48.5685 205.867 67.7685 229.867 70.7685 231.067C73.7685 232.267 81.5685 235.267 89.3685 231.067C97.1685 226.867 129.568 202.867 129.568 202.867L147.568 234.667L120.568 275.467L179.968 270.067L172.168 190.267L152.492 156.495Z" fill="#F8CACA"/>
<path fill-rule="evenodd" clip-rule="evenodd" d="M190.428 148.354L202.843 147.52C202.843 147.52 218.487 148.479 222.028 150.173C225.568 151.867 230.968 152.467 232.168 153.067C233.368 153.667 235.768 156.667 235.768 159.667C235.768 162.667 235.768 164.467 236.368 165.667C236.968 166.867 243.568 172.867 249.568 177.667C255.568 182.467 266.368 190.867 266.368 190.867L268.768 193.267L271.768 190.867C271.768 190.867 281.968 187.867 284.368 185.467C286.768 183.067 311.368 160.267 311.368 160.267L322.768 174.067C322.768 174.067 307.663 187.286 305.916 190.576C304.168 193.867 284.368 218.467 284.368 218.467C284.368 218.467 276.568 223.867 274.768 223.267C272.968 222.667 264.568 221.467 264.568 221.467L232.168 202.867L227.368 196.267L248.968 250.867L215.368 264.667L214.168 193.267L190.428 148.354Z" fill="#F8CACA"/>
</svg>
