<?xml version="1.0" encoding="UTF-8"?>
<svg width="54px" height="81px" viewBox="0 0 54 81" version="1.1" xmlns="http://www.w3.org/2000/svg" xmlns:xlink="http://www.w3.org/1999/xlink">
    <!-- Generator: Sketch 63.1 (92452) - https://sketch.com -->
    <title>Group@1x</title>
    <desc>Created with Sketch.</desc>
    <g id="Symbols" stroke="none" stroke-width="1" fill="none" fill-rule="evenodd">
        <g id="Footer" transform="translate(-849.000000, -37.000000)" fill="#FFFFFF" fill-rule="nonzero">
            <g id="re-assurance">
                <g id="Group" transform="translate(849.586626, 37.000000)">
                    <path d="M6.69627835,2.68677835 C6.5722732,2.50077062 6.42760052,2.33543041 6.26226031,2.19075773 C6.07625258,2.04608505 5.89024485,1.94274742 5.66290206,1.86007732 C5.43555928,1.77740722 5.20821649,1.73607216 4.96020619,1.73607216 C4.50552062,1.73607216 4.13350515,1.81874227 3.82349227,2.00475 C3.51347938,2.17009021 3.26546907,2.41810052 3.05879381,2.70744588 C2.87278608,2.99679124 2.7281134,3.32747165 2.6454433,3.69948711 C2.5627732,4.07150258 2.52143814,4.44351804 2.52143814,4.85686856 C2.52143814,5.22888402 2.5627732,5.60089948 2.6454433,5.97291495 C2.7281134,6.32426289 2.87278608,6.6549433 3.05879381,6.94428866 C3.24480155,7.23363402 3.51347938,7.4609768 3.82349227,7.62631701 C4.13350515,7.79165722 4.50552062,7.89499485 4.96020619,7.89499485 C5.55956443,7.89499485 6.03491753,7.70898711 6.38626546,7.33697165 C6.7376134,6.96495619 6.94428866,6.46893557 7.00629124,5.86957732 L8.92837113,5.86957732 C8.88703608,6.42760052 8.7423634,6.94428866 8.53568814,7.39897423 C8.32901289,7.85365979 8.03966753,8.24634278 7.70898711,8.55635567 C7.35763918,8.86636856 6.96495619,9.11437887 6.48960309,9.27971907 C6.03491753,9.44505928 5.51822938,9.52772938 4.96020619,9.52772938 C4.27817784,9.52772938 3.63748454,9.40372423 3.10012887,9.17638144 C2.54210567,8.92837113 2.0874201,8.59769072 1.69473711,8.18434021 C1.32272165,7.77098969 1.03337629,7.27496907 0.826701031,6.69627835 C0.620025773,6.13825515 0.516688144,5.51822938 0.516688144,4.85686856 C0.516688144,4.17484021 0.620025773,3.55481443 0.826701031,2.97612371 C1.03337629,2.39743299 1.32272165,1.90141237 1.69473711,1.46739433 C2.06675258,1.03337629 2.54210567,0.702695876 3.10012887,0.454685567 C3.65815206,0.206675258 4.27817784,0.0826701031 4.96020619,0.0826701031 C5.4562268,0.0826701031 5.9315799,0.14467268 6.36559794,0.289345361 C6.79961598,0.434018041 7.21296649,0.640693299 7.54364691,0.909371134 C7.89499485,1.17804897 8.18434021,1.52939691 8.41168299,1.9220799 C8.63902577,2.33543041 8.78369845,2.79011598 8.84570103,3.30680412 L6.92362113,3.30680412 C6.88228608,3.07946134 6.82028351,2.87278608 6.69627835,2.68677835" id="Path"></path>
                    <path d="M11.7391546,7.72965464 C12.0078325,7.99833247 12.4005155,8.12233763 12.8965361,8.12233763 C13.2685515,8.12233763 13.5785644,8.03966753 13.8265747,7.85365979 C14.0952526,7.66765206 14.2399253,7.48164433 14.3019278,7.27496907 L15.8726598,7.27496907 C15.6246495,8.06033505 15.2319665,8.61835825 14.7152784,8.94903866 C14.1985902,9.27971907 13.5578969,9.44505928 12.813866,9.44505928 C12.2971778,9.44505928 11.8424923,9.36238918 11.4291418,9.19704897 C11.0157912,9.03170876 10.6644433,8.80436598 10.3750979,8.49435309 C10.0857526,8.18434021 9.85840979,7.83299227 9.71373711,7.39897423 C9.54839691,6.98562371 9.48639433,6.51027062 9.48639433,6.01425 C9.48639433,5.51822938 9.56906443,5.06354381 9.73440464,4.6501933 C9.89974485,4.23684278 10.1270876,3.86482732 10.416433,3.55481443 C10.7057784,3.24480155 11.0571263,2.99679124 11.4704768,2.83145103 C11.8838273,2.6454433 12.3385129,2.5627732 12.8345335,2.5627732 C13.3925567,2.5627732 13.8679098,2.66611082 14.2812603,2.89345361 C14.6946108,3.10012887 15.0252912,3.38947423 15.2939691,3.76148969 C15.5626469,4.13350515 15.7486546,4.54685567 15.8726598,5.00154124 C15.9966649,5.4562268 16.038,5.95224742 15.9966649,6.44826804 L11.2844691,6.44826804 C11.3258041,7.04762629 11.4704768,7.4609768 11.7391546,7.72965464 M13.7852397,4.29884536 C13.5785644,4.07150258 13.247884,3.94749742 12.813866,3.94749742 C12.5245206,3.94749742 12.2971778,3.98883247 12.0905026,4.0921701 C11.9044948,4.19550773 11.7598222,4.31951289 11.635817,4.44351804 C11.5324794,4.58819072 11.4498093,4.7328634 11.3878067,4.89820361 C11.3464716,5.06354381 11.3051366,5.20821649 11.3051366,5.33222165 L14.2192577,5.33222165 C14.1365876,4.87753608 13.9919149,4.52618814 13.7852397,4.29884536" id="Shape"></path>
                    <path d="M18.5387706,2.76944845 L18.5387706,3.98883247 L18.5594381,3.98883247 C18.6421082,3.78215722 18.7661134,3.59614948 18.8901186,3.43080928 C19.0347912,3.26546907 19.2001314,3.12079639 19.3861392,2.99679124 C19.5721469,2.87278608 19.7788222,2.79011598 19.9854974,2.70744588 C20.1921727,2.6454433 20.4195155,2.60410825 20.6468582,2.60410825 C20.7708634,2.60410825 20.8948686,2.62477577 21.0395412,2.66611082 L21.0395412,4.34018041 C20.9568711,4.31951289 20.8535335,4.29884536 20.7295284,4.29884536 C20.6055232,4.27817784 20.5021856,4.27817784 20.3988479,4.27817784 C20.0681675,4.27817784 19.7994897,4.34018041 19.5721469,4.44351804 C19.3448041,4.54685567 19.1587964,4.71219588 19.0141237,4.89820361 C18.869451,5.08421134 18.7661134,5.31155412 18.7247784,5.55956443 C18.6627758,5.80757474 18.6421082,6.07625258 18.6421082,6.38626546 L18.6421082,9.3003866 L16.8440335,9.3003866 L16.8440335,2.76944845 L18.5387706,2.76944845 Z" id="Path"></path>
                    <path d="M25.8344072,2.76944845 L25.8344072,3.96816495 L24.5116856,3.96816495 L24.5116856,7.21296649 C24.5116856,7.52297938 24.5530206,7.70898711 24.6563582,7.81232474 C24.7596959,7.91566237 24.9663711,7.95699742 25.2557165,7.95699742 C25.3590541,7.95699742 25.4623918,7.95699742 25.5450619,7.9363299 C25.627732,7.9363299 25.7310696,7.91566237 25.8137397,7.89499485 L25.8137397,9.27971907 C25.669067,9.3003866 25.4830593,9.32105412 25.3177191,9.32105412 C25.1317113,9.32105412 24.9457036,9.34172165 24.7803634,9.34172165 C24.5116856,9.34172165 24.2430077,9.32105412 23.9949974,9.27971907 C23.7469871,9.23838402 23.5196443,9.17638144 23.3336366,9.05237629 C23.1476289,8.94903866 23.0029562,8.78369845 22.878951,8.5770232 C22.7756134,8.37034794 22.7136108,8.1016701 22.7136108,7.79165722 L22.7136108,3.9268299 L21.618232,3.9268299 L21.618232,2.7281134 L22.7136108,2.7281134 L22.7136108,0.764698454 L24.5116856,0.764698454 L24.5116856,2.7281134 L25.8344072,2.7281134 L25.8344072,2.76944845 Z" id="Path"></path>
                    <path d="M26.7437784,0.268677835 L28.5418531,0.268677835 L28.5418531,1.75673969 L26.7437784,1.75673969 L26.7437784,0.268677835 Z M28.5418531,9.3003866 L26.7437784,9.3003866 L26.7437784,2.76944845 L28.5418531,2.76944845 L28.5418531,9.3003866 Z" id="Shape"></path>
                    <path d="M29.285884,3.96816495 L29.285884,2.76944845 L30.3605954,2.76944845 L30.3605954,2.27342784 C30.3605954,1.69473711 30.5466031,1.21938402 30.897951,0.847368557 C31.2699665,0.475353093 31.8073222,0.289345361 32.5513531,0.289345361 C32.7166933,0.289345361 32.861366,0.289345361 33.0267062,0.310012887 C33.1920464,0.330680412 33.3367191,0.330680412 33.5020593,0.351347938 L33.5020593,1.69473711 C33.295384,1.67406959 33.0680412,1.65340206 32.8406985,1.65340206 C32.5926881,1.65340206 32.4273479,1.71540464 32.3240103,1.81874227 C32.2206727,1.9220799 32.1586701,2.12875515 32.1586701,2.39743299 L32.1586701,2.79011598 L33.3987216,2.79011598 L33.3987216,3.98883247 L32.1586701,3.98883247 L32.1586701,9.3003866 L30.3605954,9.3003866 L30.3605954,3.96816495 L29.285884,3.96816495 Z" id="Path"></path>
                    <path d="M34.473433,0.268677835 L36.2715077,0.268677835 L36.2715077,1.75673969 L34.473433,1.75673969 L34.473433,0.268677835 Z M36.2715077,9.3003866 L34.473433,9.3003866 L34.473433,2.76944845 L36.2715077,2.76944845 L36.2715077,9.3003866 Z" id="Shape"></path>
                    <path d="M39.1029588,7.72965464 C39.3716366,7.99833247 39.7643196,8.12233763 40.2603402,8.12233763 C40.6323557,8.12233763 40.9423686,8.03966753 41.1903789,7.85365979 C41.4590567,7.66765206 41.6037294,7.48164433 41.665732,7.27496907 L43.2364639,7.27496907 C42.9884536,8.06033505 42.5957706,8.61835825 42.0790825,8.94903866 C41.5623943,9.27971907 40.921701,9.44505928 40.1776701,9.44505928 C39.660982,9.44505928 39.2062964,9.36238918 38.7929459,9.19704897 C38.3795954,9.03170876 38.0282474,8.80436598 37.7389021,8.49435309 C37.4495567,8.18434021 37.2222139,7.83299227 37.0775412,7.39897423 C36.912201,6.98562371 36.8501985,6.51027062 36.8501985,6.01425 C36.8501985,5.51822938 36.9328686,5.06354381 37.0982088,4.6501933 C37.263549,4.23684278 37.4908918,3.86482732 37.7802371,3.55481443 C38.0695825,3.24480155 38.4209304,2.99679124 38.8342809,2.83145103 C39.2476314,2.6454433 39.702317,2.5627732 40.1983376,2.5627732 C40.7563608,2.5627732 41.2317139,2.66611082 41.6450644,2.89345361 C42.0584149,3.10012887 42.3890954,3.38947423 42.6577732,3.76148969 C42.926451,4.13350515 43.1124588,4.54685567 43.2364639,5.00154124 C43.3604691,5.4562268 43.4018041,5.95224742 43.3604691,6.44826804 L38.6482732,6.44826804 C38.6896082,7.04762629 38.8342809,7.4609768 39.1029588,7.72965464 M41.1283763,4.29884536 C40.921701,4.07150258 40.5910206,3.94749742 40.1570026,3.94749742 C39.8676572,3.94749742 39.6403144,3.98883247 39.4336392,4.0921701 C39.2476314,4.19550773 39.0822912,4.31951289 38.9789536,4.44351804 C38.8549485,4.58819072 38.7929459,4.7328634 38.7309433,4.89820361 C38.6896082,5.06354381 38.6482732,5.20821649 38.6482732,5.33222165 L41.5623943,5.33222165 C41.5003918,4.87753608 41.3350515,4.52618814 41.1283763,4.29884536" id="Shape"></path>
                    <path d="M48.8166959,8.45301804 C48.6100206,8.80436598 48.3206753,9.05237629 47.9899948,9.21771649 C47.6386469,9.3830567 47.2666314,9.44505928 46.8326134,9.44505928 C46.3365928,9.44505928 45.9232423,9.34172165 45.5512268,9.15571392 C45.1792113,8.96970619 44.8691985,8.70102835 44.6418557,8.39101546 C44.3938454,8.06033505 44.2285052,7.68831959 44.1045,7.27496907 C43.9804948,6.86161856 43.9184923,6.40693299 43.9184923,5.95224742 C43.9184923,5.51822938 43.9804948,5.08421134 44.1045,4.69152835 C44.2285052,4.27817784 44.4145129,3.9268299 44.6418557,3.61681701 C44.889866,3.30680412 45.1792113,3.05879381 45.5512268,2.87278608 C45.9232423,2.68677835 46.3365928,2.58344072 46.8119459,2.58344072 C47.2046289,2.58344072 47.5766443,2.66611082 47.9073247,2.83145103 C48.2586727,2.99679124 48.5273505,3.24480155 48.7340258,3.55481443 L48.7546933,3.55481443 L48.7546933,0.268677835 L50.552768,0.268677835 L50.552768,9.3003866 L48.8373634,9.3003866 L48.8373634,8.47368557 L48.8166959,8.47368557 L48.8166959,8.45301804 Z M48.7340258,5.22888402 C48.6926907,4.98087371 48.5893531,4.75353093 48.4653479,4.5675232 C48.3413428,4.38151546 48.1760026,4.21617526 47.9899948,4.11283763 C47.8039871,3.98883247 47.5559768,3.9268299 47.2666314,3.9268299 C46.9772861,3.9268299 46.7292758,3.98883247 46.5226005,4.11283763 C46.3159253,4.23684278 46.1505851,4.38151546 46.0265799,4.58819072 C45.9025747,4.77419845 45.8199046,5.00154124 45.7579021,5.24955155 C45.6958995,5.49756186 45.675232,5.76623969 45.675232,6.03491753 C45.675232,6.28292784 45.6958995,6.53093814 45.7579021,6.79961598 C45.8199046,7.04762629 45.9232423,7.27496907 46.0472474,7.48164433 C46.1712526,7.68831959 46.3365928,7.83299227 46.543268,7.95699742 C46.7499433,8.08100258 46.9772861,8.14300515 47.2666314,8.14300515 C47.5559768,8.14300515 47.8039871,8.08100258 48.0106624,7.95699742 C48.2173376,7.83299227 48.3620103,7.68831959 48.4860155,7.48164433 C48.6100206,7.27496907 48.6926907,7.06829381 48.7340258,6.79961598 C48.7753608,6.55160567 48.8166959,6.28292784 48.8166959,6.01425 C48.8166959,5.74557216 48.7960284,5.47689433 48.7340258,5.22888402" id="Shape"></path>
                    <path d="M14.7772809,23.9743299 L25.235049,23.9743299 C27.7771546,23.9743299 31.1252938,23.9743299 32.861366,25.0283737 C34.7627784,26.1650876 36.2508402,28.2111727 36.2508402,31.0426237 C36.2508402,34.1014175 34.6387732,36.4161804 31.9726624,37.5115593 L31.9726624,37.5942294 C35.5274768,38.3175928 37.4702242,40.9837036 37.4702242,44.538518 C37.4702242,48.7753608 34.4320979,52.8261959 28.7071933,52.8261959 L14.7772809,52.8261959 L14.7772809,23.9743299 Z M18.6214407,36.3748454 L26.3097603,36.3748454 C30.6706082,36.3748454 32.4480155,34.8041134 32.4480155,31.7659871 C32.4480155,27.7564871 29.6165644,27.1984639 26.3097603,27.1984639 L18.6214407,27.1984639 L18.6214407,36.3748454 Z M18.6214407,49.5813943 L28.2318402,49.5813943 C31.5386443,49.5813943 33.646732,47.5559768 33.646732,44.4145129 C33.646732,40.6530232 30.6086057,39.5989794 27.3844716,39.5989794 L18.6214407,39.5989794 L18.6214407,49.5813943 Z" id="Shape"></path>
                    <path d="M47.287299,38.4002629 C47.287299,50.511433 37.4702242,60.3285077 25.3383866,60.3285077 C13.2272165,60.3285077 3.41014175,50.511433 3.41014175,38.4002629 C3.41014175,26.2890928 13.2272165,16.472018 25.3383866,16.472018 C37.4702242,16.472018 47.287299,26.2890928 47.287299,38.4002629 M25.3590541,13.1238789 C11.4084742,13.1238789 0.0826701031,24.4290155 0.0826701031,38.4002629 C0.0826701031,52.3508428 11.3878067,63.6766469 25.3590541,63.6766469 C39.309634,63.6766469 50.6354381,52.3715103 50.6354381,38.4002629 C50.6354381,24.4290155 39.309634,13.1238789 25.3590541,13.1238789" id="Shape"></path>
                    <path d="M4.75353093,69.1122062 C4.67086082,68.4715129 4.05083505,67.9961598 3.34813918,67.9961598 C2.0874201,67.9961598 1.61206701,69.0708711 1.61206701,70.1869175 C1.61206701,71.2409613 2.0874201,72.3156727 3.34813918,72.3156727 C4.21617526,72.3156727 4.69152835,71.7163144 4.79486598,70.8896134 L6.15892268,70.8896134 C6.01425,72.4810129 4.91887113,73.4937216 3.34813918,73.4937216 C1.3640567,73.4937216 0.206675258,72.0263273 0.206675258,70.16625 C0.206675258,68.2648376 1.3640567,66.7974433 3.34813918,66.7974433 C4.75353093,66.7974433 5.9315799,67.6241443 6.0969201,69.0915387 L4.75353093,69.0915387 L4.75353093,69.1122062 Z" id="Path"></path>
                    <path d="M9.09371134,68.6161856 C10.5611057,68.6161856 11.4911443,69.5875593 11.4911443,71.0549536 C11.4911443,72.5223479 10.5611057,73.4937216 9.09371134,73.4937216 C7.64698454,73.4937216 6.69627835,72.5223479 6.69627835,71.0549536 C6.71694588,69.5668918 7.64698454,68.6161856 9.09371134,68.6161856 M9.09371134,72.5223479 C9.96174742,72.5223479 10.2304253,71.778317 10.2304253,71.0549536 C10.2304253,70.3109227 9.96174742,69.5668918 9.09371134,69.5668918 C8.22567526,69.5668918 7.97766495,70.3109227 7.97766495,71.0549536 C7.97766495,71.778317 8.24634278,72.5223479 9.09371134,72.5223479" id="Shape"></path>
                    <path d="M12.2351753,68.7401907 L13.4338918,68.7401907 L13.4338918,69.6082268 L13.4545593,69.6082268 C13.6819021,69.0295361 14.3225954,68.6161856 14.9219536,68.6161856 C15.0046237,68.6161856 15.1079613,68.6368531 15.1906314,68.6575206 L15.1906314,69.8355696 C15.0666263,69.8149021 14.8806186,69.7942345 14.7359459,69.7942345 C13.8059072,69.7942345 13.4752268,70.4555954 13.4752268,71.2822964 L13.4752268,73.3697165 L12.2145077,73.3697165 L12.2145077,68.7401907 L12.2351753,68.7401907 Z" id="Path"></path>
                    <path d="M15.8933273,68.7401907 L17.0920438,68.7401907 L17.0920438,69.339549 L17.1127113,69.339549 C17.4227242,68.8435284 17.9187448,68.6161856 18.4974356,68.6161856 C19.9441624,68.6161856 20.6055232,69.7942345 20.6055232,71.0962887 C20.6055232,72.3363402 19.9234948,73.4937216 18.5801057,73.4937216 C18.0220825,73.4937216 17.5053943,73.2457113 17.1953814,72.7910258 L17.1540464,72.7910258 L17.1540464,75.002451 L15.8933273,75.002451 L15.8933273,68.7401907 Z M19.3241366,71.0549536 C19.3241366,70.3109227 19.0347912,69.5668918 18.2080902,69.5668918 C17.3813892,69.5668918 17.1127113,70.3109227 17.1127113,71.0549536 C17.1127113,71.7989845 17.4020567,72.5223479 18.2287577,72.5223479 C19.0554588,72.5223479 19.3241366,71.8196521 19.3241366,71.0549536" id="Shape"></path>
                    <path d="M23.6023144,68.6161856 C25.0697088,68.6161856 25.9997474,69.5875593 25.9997474,71.0549536 C25.9997474,72.5223479 25.0490412,73.4937216 23.6023144,73.4937216 C22.1555876,73.4937216 21.2048814,72.5223479 21.2048814,71.0549536 C21.2048814,69.5668918 22.1555876,68.6161856 23.6023144,68.6161856 M23.6023144,72.5223479 C24.4703505,72.5223479 24.7390284,71.778317 24.7390284,71.0549536 C24.7390284,70.3109227 24.4703505,69.5668918 23.6023144,69.5668918 C22.7342784,69.5668918 22.486268,70.3109227 22.486268,71.0549536 C22.486268,71.778317 22.7342784,72.5223479 23.6023144,72.5223479" id="Shape"></path>
                    <path d="M26.847116,68.7401907 L28.0458325,68.7401907 L28.0458325,69.6082268 L28.0665,69.6082268 C28.2938428,69.0295361 28.9345361,68.6161856 29.5338943,68.6161856 C29.6165644,68.6161856 29.7405696,68.6368531 29.8025722,68.6575206 L29.8025722,69.8355696 C29.678567,69.8149021 29.4925593,69.7942345 29.3478866,69.7942345 C28.4178479,69.7942345 28.0871675,70.4555954 28.0871675,71.2822964 L28.0871675,73.3697165 L26.8264485,73.3697165 L26.8264485,68.7401907 L26.847116,68.7401907 Z" id="Path"></path>
                    <path d="M30.2779253,70.16625 C30.3605954,68.9675335 31.4146392,68.6161856 32.4480155,68.6161856 C33.3780541,68.6161856 34.473433,68.8228608 34.473433,69.9389072 L34.473433,72.3363402 C34.473433,72.7496907 34.514768,73.1837088 34.6387732,73.3697165 L33.3573866,73.3697165 C33.3160515,73.2250438 33.2747165,73.0803711 33.2747165,72.9150309 C32.8820335,73.3283814 32.2826753,73.4937216 31.7246521,73.4937216 C30.856616,73.4937216 30.1539201,73.0597036 30.1539201,72.1089974 C30.1539201,71.0549536 30.9392861,70.8069433 31.7246521,70.7036057 C32.510018,70.5796005 33.2333814,70.6209356 33.2333814,70.1042474 C33.2333814,69.5668918 32.861366,69.4842216 32.4066804,69.4842216 C31.9313273,69.4842216 31.6006469,69.6702294 31.5593119,70.1869175 L30.2779253,70.1869175 L30.2779253,70.16625 Z M33.2127139,71.0962887 C33.0060387,71.2822964 32.5513531,71.3029639 32.1586701,71.3649665 C31.7659871,71.4476366 31.4146392,71.5716418 31.4146392,72.0469948 C31.4146392,72.5223479 31.7866546,72.6463531 32.2000052,72.6463531 C33.1920464,72.6463531 33.2333814,71.8609871 33.2333814,71.5923093 L33.2333814,71.0962887 L33.2127139,71.0962887 Z" id="Shape"></path>
                    <path d="M37.0775412,68.7401907 L38.0075799,68.7401907 L38.0075799,69.5875593 L37.0775412,69.5875593 L37.0775412,71.8816546 C37.0775412,72.3156727 37.1808789,72.4190103 37.6148969,72.4190103 C37.7595696,72.4190103 37.8835747,72.4190103 38.0075799,72.3776753 L38.0075799,73.3697165 C37.8009046,73.4110515 37.5115593,73.4110515 37.263549,73.4110515 C36.478183,73.4110515 35.8168222,73.2250438 35.8168222,72.3156727 L35.8168222,69.5875593 L35.0521237,69.5875593 L35.0521237,68.7401907 L35.8168222,68.7401907 L35.8168222,67.3554665 L37.0775412,67.3554665 L37.0775412,68.7401907 Z" id="Path"></path>
                    <path d="M39.9089923,68.0168273 L38.6482732,68.0168273 L38.6482732,66.9627835 L39.9089923,66.9627835 L39.9089923,68.0168273 Z M38.6482732,68.7401907 L39.9089923,68.7401907 L39.9089923,73.3697165 L38.6482732,73.3697165 L38.6482732,68.7401907 Z" id="Shape"></path>
                    <path d="M42.9884536,68.6161856 C44.4558479,68.6161856 45.3858866,69.5875593 45.3858866,71.0549536 C45.3858866,72.5223479 44.4351804,73.4937216 42.9884536,73.4937216 C41.5417268,73.4937216 40.6116881,72.5223479 40.6116881,71.0549536 C40.5910206,69.5668918 41.5417268,68.6161856 42.9884536,68.6161856 M42.9884536,72.5223479 C43.8564897,72.5223479 44.1251675,71.778317 44.1251675,71.0549536 C44.1251675,70.3109227 43.8771572,69.5668918 42.9884536,69.5668918 C42.1204175,69.5668918 41.8724072,70.3109227 41.8724072,71.0549536 C41.8724072,71.778317 42.1204175,72.5223479 42.9884536,72.5223479" id="Shape"></path>
                    <path d="M46.1919201,68.7401907 L47.3906366,68.7401907 L47.3906366,69.380884 L47.4113041,69.380884 C47.7419845,68.8641959 48.2793402,68.6161856 48.8166959,68.6161856 C50.1600851,68.6161856 50.511433,69.380884 50.511433,70.5175979 L50.511433,73.3697165 L49.2507139,73.3697165 L49.2507139,70.7656082 C49.2507139,70.0009098 49.0233711,69.6288943 48.4446804,69.6288943 C47.7626521,69.6288943 47.4526392,70.0215773 47.4526392,70.951616 L47.4526392,73.3697165 L46.1919201,73.3697165 L46.1919201,68.7401907 Z" id="Path"></path>
                    <rect id="Rectangle" x="0.186007732" y="77.2965464" width="50.3667603" height="3.22413402"></rect>
                    <path d="M51.2761314,66.786104 L50.9867861,66.786104 L50.9867861,67.6527706 L50.8421134,67.6527706 L50.8421134,66.786104 L50.552768,66.786104 L50.552768,66.6527706 L51.296799,66.6527706 L51.296799,66.786104 L51.2761314,66.786104 Z M52.516183,67.6527706 L52.3715103,67.6527706 L52.3715103,66.8083262 L52.3715103,66.8083262 L52.0614974,67.6527706 L51.9581598,67.6527706 L51.6481469,66.8083262 L51.6481469,66.8083262 L51.6481469,67.6527706 L51.4828067,67.6527706 L51.4828067,66.6527706 L51.730817,66.6527706 L52.0201624,67.4083262 L52.2888402,66.6527706 L52.5368505,66.6527706 L52.5368505,67.6527706 L52.516183,67.6527706 Z" id="Shape"></path>
                </g>
            </g>
        </g>
    </g>
</svg>