<svg width="352" height="320" viewBox="0 0 352 320" fill="none" xmlns="http://www.w3.org/2000/svg">
<mask id="mask0" mask-type="alpha" maskUnits="userSpaceOnUse" x="37" y="154" width="278" height="163">
<path d="M259.413 154.469C184.002 154.472 40.432 218.829 37.1512 255.495C34.0138 290.556 92.41 316.151 158.153 316.218H158.646C177.415 316.2 196.761 314.102 215.448 309.548C299.793 288.992 338.487 208.727 298.238 165.957C290.673 157.918 276.872 154.469 259.417 154.469C259.415 154.469 259.415 154.469 259.413 154.469Z" fill="white"/>
</mask>
<g mask="url(#mask0)">
<path fill-rule="evenodd" clip-rule="evenodd" d="M34.1001 319.148H317.161V151.538H34.1001V319.148Z" fill="#F2F2F2"/>
</g>
<path fill-rule="evenodd" clip-rule="evenodd" d="M132.874 202.373L131.363 229.259L152.811 229.864L149.187 188.477L136.197 187.873L132.874 202.373Z" fill="#F8CACA"/>
<mask id="mask1" mask-type="alpha" maskUnits="userSpaceOnUse" x="37" y="137" width="278" height="180">
<path d="M37.1512 255.495C33.1108 300.649 131.103 330.102 215.448 309.548C299.793 288.992 339.531 207.72 298.238 165.958C278.04 145.529 252.894 137.35 226.232 137.351C140.941 137.359 40.2298 221.095 37.1512 255.495Z" fill="white"/>
</mask>
<g mask="url(#mask1)">
<path fill-rule="evenodd" clip-rule="evenodd" d="M180.29 185.346C180.29 185.346 160.741 137.839 158.867 137.839C156.993 137.839 147.267 144.799 147.267 144.799L141.689 202.585C141.689 202.585 149.934 232.567 143.938 237.064C137.942 241.561 107.96 306.021 112.832 312.767C117.704 319.513 147.686 339.001 165.674 337.502C183.663 336.003 230.51 331.506 230.884 327.008C231.259 322.511 217.392 243.81 215.519 242.685C213.645 241.561 218.142 221.324 218.142 221.324L215.144 144.121L210.647 133.628L197.155 172.978L180.29 185.346Z" fill="#EA4F51"/>
</g>
<path fill-rule="evenodd" clip-rule="evenodd" d="M171.117 3.10022C173.995 4.32182 176.688 7.93802 176.688 7.93802L181.282 3.17582L183.803 9.29222C183.803 9.29222 187.635 6.91862 190.759 6.84122C190.759 6.84122 187.871 9.24242 187.031 11.9994C186.604 13.3992 186.368 16.5672 188.597 18.4644L188.68 18.5172C196.115 23.8338 200.213 33.1446 198.383 42.7122C195.875 55.815 183.217 64.4088 170.108 61.8984C157.001 59.3916 148.409 46.7334 150.916 33.6264C152.732 24.141 159.876 17.0448 168.646 14.7852C168.726 14.763 168.809 14.7396 168.892 14.7156L168.857 14.706C171.629 13.761 172.574 10.7286 172.691 9.26762C172.922 6.39602 171.117 3.10022 171.117 3.10022Z" fill="#333333"/>
<path fill-rule="evenodd" clip-rule="evenodd" d="M171.483 37.4995C194.872 37.4995 213.833 56.4601 213.833 79.8481C213.833 103.237 194.872 122.197 171.483 122.197C148.095 122.197 129.134 103.237 129.134 79.8481C129.134 56.4601 148.095 37.4995 171.483 37.4995Z" fill="#333333"/>
<path fill-rule="evenodd" clip-rule="evenodd" d="M161.927 111.141C161.927 111.141 175.044 131.754 165.675 136.251C156.306 140.748 155.556 138.875 155.556 138.875L161.552 183.098L180.291 195.839L206.524 170.355L207.274 169.23L209.898 138.875L206.524 132.504C206.524 132.504 193.033 134.378 191.908 123.134C190.784 111.891 189.285 104.771 189.285 104.771L161.927 111.141Z" fill="#BA9579"/>
<path fill-rule="evenodd" clip-rule="evenodd" d="M165.083 59.3321C178.772 56.1287 193.334 68.3405 197.609 86.6075C201.884 104.874 194.252 122.28 180.563 125.484C166.874 128.687 152.311 116.475 148.037 98.2085C143.762 79.9415 151.394 62.5355 165.083 59.3321Z" fill="#C19B7C"/>
<path fill-rule="evenodd" clip-rule="evenodd" d="M163.968 138.469C171.669 131.397 169.032 131.073 161.9 135.372C155.152 139.438 133.973 134.819 131.571 139.624C128.573 145.62 126.699 201.086 127.823 202.585C128.948 204.084 122.951 260.299 125.199 261.049C127.448 261.799 131.571 256.552 133.445 252.43C135.318 248.307 151.808 171.48 151.808 171.48L163.968 138.469Z" fill="#F8CACA"/>
<path fill-rule="evenodd" clip-rule="evenodd" d="M201.563 134.082C191.7 129.304 195.745 129.038 204.71 131.852C211.801 134.078 229.339 138.656 232.009 139.249C235.381 139.998 239.879 146.37 239.504 147.12C239.13 147.869 235.756 186.095 235.756 186.095C235.756 186.095 239.129 193.216 240.253 194.34C241.378 195.465 258.243 243.435 254.495 247.182C250.747 250.93 220.016 259.55 217.393 255.802C214.77 252.054 214.77 229.569 208.398 225.446C202.027 221.324 191.534 171.854 196.78 156.489C200.311 146.15 205.264 135.875 201.563 134.082Z" fill="#F8CACA"/>
<path fill-rule="evenodd" clip-rule="evenodd" d="M248.124 243.81L230.892 255.386C230.892 255.386 206.899 259.175 208.399 245.684C209.897 232.192 230.135 231.068 230.135 231.068L240.254 231.817L248.124 243.81Z" fill="#BA9579"/>
<path fill-rule="evenodd" clip-rule="evenodd" d="M167.505 56.4235C184.432 53.4883 199.129 56.7307 200.33 63.6637C201.533 70.5979 188.785 78.5983 171.859 81.5335C154.932 84.4675 140.236 81.2263 139.033 74.2921C137.831 67.3585 150.578 59.3587 167.505 56.4235Z" fill="#333333"/>
<path fill-rule="evenodd" clip-rule="evenodd" d="M238.38 144.496C238.38 144.496 288.224 198.837 285.601 204.459C282.977 210.081 249.997 253.554 248.873 252.804C247.749 252.055 239.13 230.318 235.381 230.318C235.381 230.318 248.439 227.424 250.53 224.186C252.621 220.949 263.115 207.832 257.868 204.459C252.621 201.086 235.381 182.347 234.257 181.598C233.133 180.849 238.38 144.496 238.38 144.496Z" fill="#F8CACA"/>
<path fill-rule="evenodd" clip-rule="evenodd" d="M108.71 231.443L125.942 243.018C125.942 243.018 149.935 246.808 148.435 233.316C146.937 219.825 126.699 218.7 126.699 218.7L116.58 219.45L108.71 231.443Z" fill="#BA9579"/>
<path fill-rule="evenodd" clip-rule="evenodd" d="M136.443 139.249C127.831 148.658 121.542 159.953 118.079 172.229C112.457 192.466 105.711 198.462 105.711 202.585C105.711 206.708 106.836 238.562 109.46 238.937C112.083 239.312 110.583 219.449 124.825 220.199C124.825 220.199 123.326 217.576 124.825 216.452C126.324 215.327 126.699 214.578 125.949 213.828C125.199 213.079 124.825 210.455 125.949 209.331C127.073 208.207 127.823 202.585 127.823 202.585L130.821 201.461L136.443 139.249Z" fill="#F8CACA"/>
<path fill-rule="evenodd" clip-rule="evenodd" d="M181.139 93.1501C181.248 94.5811 181.821 95.7037 182.417 95.6581C183.014 95.6125 183.408 94.4143 183.297 92.9839C183.188 91.5529 182.615 90.4303 182.019 90.4765C181.422 90.5221 181.028 91.7191 181.139 93.1501Z" fill="#333333"/>
<path fill-rule="evenodd" clip-rule="evenodd" d="M183.173 88.3383L180.216 87.5445L180.527 86.3853L183.484 87.1791L183.173 88.3383Z" fill="#333333"/>
<path fill-rule="evenodd" clip-rule="evenodd" d="M167.648 95.6063C168.049 96.9839 167.909 98.2367 167.335 98.4035C166.76 98.5703 165.97 97.5893 165.569 96.2117C165.167 94.8335 165.308 93.5813 165.882 93.4139C166.456 93.2465 167.247 94.2281 167.648 95.6063Z" fill="#333333"/>
<path fill-rule="evenodd" clip-rule="evenodd" d="M164.047 91.8205L163.347 90.8449L165.835 89.0593L166.536 90.0349L164.047 91.8205Z" fill="#333333"/>
<path fill-rule="evenodd" clip-rule="evenodd" d="M170.594 110.276C170.356 109.737 170.696 109.121 171.28 109.036L172.123 108.912L182.744 107.35C183.343 107.262 183.848 107.782 183.752 108.379C183.414 110.48 182.142 114.647 177.361 114.997C173.361 115.289 171.371 112.033 170.594 110.276Z" fill="#333333"/>
<mask id="mask2" mask-type="alpha" maskUnits="userSpaceOnUse" x="170" y="107" width="14" height="9">
<path d="M182.744 107.349L172.122 108.912L171.279 109.036C170.696 109.122 170.355 109.737 170.593 110.276C171.371 112.033 173.361 115.29 177.36 114.998C182.141 114.648 183.413 110.48 183.752 108.379C183.84 107.826 183.414 107.34 182.876 107.34C182.832 107.34 182.789 107.343 182.744 107.349Z" fill="white"/>
</mask>
<g mask="url(#mask2)">
<path fill-rule="evenodd" clip-rule="evenodd" d="M170.437 110.646C170.437 110.646 178.998 109.878 183.313 108.763L185.161 108.299L185.28 105.978L169.787 107.509C169.787 107.509 168.858 109.789 170.437 110.646Z" fill="white"/>
</g>
</svg>
