<?xml version="1.0" encoding="UTF-8"?>
<svg width="48px" height="48px" viewBox="0 0 48 48" version="1.1" xmlns="http://www.w3.org/2000/svg" xmlns:xlink="http://www.w3.org/1999/xlink">
    <!-- Generator: Sketch 63.1 (92452) - https://sketch.com -->
    <title>Icons/Agenda@1x</title>
    <desc>Created with Sketch.</desc>
    <defs>
        <path d="M16,2 L15,2 L15,4 L12,4 L12,2 L6,2 L6,4 L3,4 L3,2 L2,2 C0.899,2 0,2.9 0,4 L0,16 C0,17.1 0.899,18 2,18 L16,18 C17.1,18 18,17.1 18,16 L18,4 C18,2.9 17.1,2 16,2 Z M16,16 L2,16 L2,8 L16,8 L16,16 Z M5.5,0 L3.5,0 L3.5,3.5 L5.5,3.5 L5.5,0 Z M14.5,0 L12.5,0 L12.5,3.5 L14.5,3.5 L14.5,0 Z" id="path-1"></path>
    </defs>
    <g id="Icons/Agenda" stroke="none" stroke-width="1" fill="none" fill-rule="evenodd">
        <g id="calendar" transform="translate(15.000000, 15.000000)">
            <g id="Icon-Shade">
                <mask id="mask-2" fill="white">
                    <use xlink:href="#path-1"></use>
                </mask>
                <use id="Mask" fill="#424242" fill-rule="nonzero" xlink:href="#path-1"></use>
                <g id="Color/Charcoal" mask="url(#mask-2)" fill="#333333">
                    <g transform="translate(-15.000000, -15.000000)" id="Rectangle-Copy-10">
                        <rect x="0" y="0" width="48" height="48"></rect>
                    </g>
                </g>
            </g>
        </g>
    </g>
</svg>