<?xml version="1.0" encoding="UTF-8"?>
<svg width="48px" height="48px" viewBox="0 0 48 48" version="1.1" xmlns="http://www.w3.org/2000/svg" xmlns:xlink="http://www.w3.org/1999/xlink">
    <!-- Generator: Sketch 63.1 (92452) - https://sketch.com -->
    <title>Icons/Ok@1x</title>
    <desc>Created with Sketch.</desc>
    <defs>
        <path d="M15.958,-1.56319402e-13 C17.699,-1.56319402e-13 19.41,0.279 21.044,0.829 C21.568,1.004 21.85,1.572 21.674,2.095 C21.499,2.618 20.929,2.901 20.408,2.724 C18.978,2.244 17.481,2 15.958,2 C8.262,2 2,8.262 2,15.959 C2,23.655 8.262,29.917 15.958,29.917 C23.655,29.917 29.916,23.655 29.916,15.959 C29.916,15.406 30.364,14.959 30.916,14.959 C31.469,14.959 31.916,15.406 31.916,15.959 C31.916,24.758 24.757,31.917 15.958,31.917 C7.159,31.917 1.4033219e-13,24.758 1.4033219e-13,15.959 C1.4033219e-13,7.159 7.159,-1.56319402e-13 15.958,-1.56319402e-13 Z M29.0654,5.1335 C29.4504,5.5295 29.4424,6.1625 29.0464,6.5475 L13.8354,21.3555 L7.0064,14.6815 C6.6114,14.2955 6.6044,13.6625 6.9904,13.2675 C7.3774,12.8725 8.0094,12.8655 8.4044,13.2515 L13.8384,18.5625 L27.6514,5.1155 C28.0464,4.7295 28.6794,4.7385 29.0654,5.1335 Z" id="path-1"></path>
    </defs>
    <g id="Icons/Ok" stroke="none" stroke-width="1" fill="none" fill-rule="evenodd">
        <g id="ok" transform="translate(8.000000, 8.000000)">
            <g id="Icon-Shade">
                <mask id="mask-2" fill="white">
                    <use xlink:href="#path-1"></use>
                </mask>
                <use id="Mask" fill="#424242" xlink:href="#path-1"></use>
                <g id="Color/Charcoal" mask="url(#mask-2)" fill="#333333">
                    <g transform="translate(-8.000000, -8.000000)" id="Rectangle-Copy-10">
                        <rect x="0" y="0" width="48" height="48"></rect>
                    </g>
                </g>
            </g>
        </g>
    </g>
</svg>