<svg id="Calque_1" data-name="Calque 1" xmlns="http://www.w3.org/2000/svg" xmlns:xlink="http://www.w3.org/1999/xlink" viewBox="0 0 48 48"><defs><style>.cls-1{fill:#fff;}.cls-2{mask:url(#mask);}</style><mask id="mask" x="0" y="0" width="48" height="48" maskUnits="userSpaceOnUse"><g id="mask0"><path class="cls-1" d="M24,8A15.86,15.86,0,0,1,29,8.83a1,1,0,1,1-.63,1.89A14,14,0,1,0,37.92,24a1,1,0,0,1,2,0A16,16,0,1,1,24,8Zm13.11,5.13a1,1,0,0,1,0,1.42L21.84,29.36,15,22.68a1,1,0,0,1,1.39-1.43l5.44,5.31L35.65,13.12A1,1,0,0,1,37.07,13.13Z"/></g></mask></defs><g class="cls-2"><path class="cls-1" d="M24,8A15.86,15.86,0,0,1,29,8.83a1,1,0,1,1-.63,1.89A14,14,0,1,0,37.92,24a1,1,0,0,1,2,0A16,16,0,1,1,24,8Zm13.11,5.13a1,1,0,0,1,0,1.42L21.84,29.36,15,22.68a1,1,0,0,1,1.39-1.43l5.44,5.31L35.65,13.12A1,1,0,0,1,37.07,13.13Z"/><path class="cls-1" d="M48,0H0V48H48Z"/></g></svg>