<?xml version="1.0" encoding="UTF-8"?>
<svg width="48px" height="48px" viewBox="0 0 48 48" version="1.1" xmlns="http://www.w3.org/2000/svg" xmlns:xlink="http://www.w3.org/1999/xlink">
    <!-- Generator: Sketch 63.1 (92452) - https://sketch.com -->
    <title>Icons/Cross@1x</title>
    <desc>Created with Sketch.</desc>
    <defs>
        <path d="M9.348,10.849 C8.879,11.318 8.119,11.318 7.651,10.849 L5,7.819 L2.349,10.848 C1.88,11.317 1.12,11.317 0.652,10.848 C0.183,10.379 0.183,9.619 0.652,9.151 L3.41,6.001 L0.651,2.849 C0.182,2.38 0.182,1.621 0.651,1.152 C1.12,0.683 1.879,0.683 2.348,1.152 L5,4.183 L7.651,1.152 C8.12,0.683 8.879,0.683 9.348,1.152 C9.817,1.621 9.817,2.381 9.348,2.849 L6.59,6.001 L9.348,9.151 C9.817,9.62 9.817,10.38 9.348,10.849 Z" id="path-1"></path>
    </defs>
    <g id="Icons/Cross" stroke="none" stroke-width="1" fill="none" fill-rule="evenodd">
        <g id="cross" transform="translate(19.000000, 18.000000)">
            <g id="Color/Charcoal">
                <mask id="mask-2" fill="white">
                    <use xlink:href="#path-1"></use>
                </mask>
                <use id="Mask" fill="#424242" fill-rule="nonzero" xlink:href="#path-1"></use>
                <g mask="url(#mask-2)" fill="#333333" id="Rectangle-Copy-10">
                    <g transform="translate(-19.000000, -18.000000)">
                        <rect x="0" y="0" width="48" height="48"></rect>
                    </g>
                </g>
            </g>
        </g>
    </g>
</svg>