<?xml version="1.0" encoding="UTF-8" standalone="no"?>
<!DOCTYPE svg PUBLIC "-//W3C//DTD SVG 1.1//EN" "http://www.w3.org/Graphics/SVG/1.1/DTD/svg11.dtd">
<svg width="100%" height="100%" viewBox="0 0 48 48" version="1.1" xmlns="http://www.w3.org/2000/svg" xmlns:xlink="http://www.w3.org/1999/xlink" xml:space="preserve" xmlns:serif="http://www.serif.com/" style="fill-rule:evenodd;clip-rule:evenodd;stroke-linejoin:round;stroke-miterlimit:2;">
    <g id="Icon-Shade" transform="matrix(1,0,0,1,5,5)">
        <g id="Mask">
            <path id="path-1_1_" d="M19,34.9C10.2,34.9 3.1,27.8 3.1,19C3.1,10.2 10.2,3.1 19,3.1C20.7,3.1 22.4,3.4 24.1,3.9C24.6,4.1 24.9,4.6 24.7,5.2C24.5,5.7 24,6 23.4,5.8C22,5.3 20.5,5.1 19,5.1C11.3,5.1 5.1,11.3 5.1,19C5.1,26.7 11.3,32.9 19,32.9C26.7,32.9 32.9,26.7 32.9,19C32.9,18.4 33.3,18 33.9,18C34.5,18 34.9,18.4 34.9,19C34.9,27.8 27.8,34.9 19,34.9" style="fill:rgb(192,192,192);"/>
        </g>
    </g>
    <g transform="matrix(1,-3.88578e-16,3.88578e-16,1,-0.0803803,0.0495475)">
        <g id="Mask_1_">
            <path id="path-3_1_" d="M18.8,39.1C10.5,36.2 6.1,27.2 8.9,18.9C11.7,10.6 20.9,6.1 29.2,8.9C29.7,9.1 30,9.6 29.8,10.2C29.6,10.7 29.1,11 28.5,10.8C21.2,8.3 13.3,12.2 10.8,19.4C8.3,26.6 12.2,34.6 19.4,37.1C19.9,37.3 20.2,37.8 20,38.4C19.9,39 19.3,39.2 18.8,39.1Z" style="fill:rgb(0,135,155);fill-rule:nonzero;"/>
        </g>
    </g>
</svg>
