<?xml version="1.0" encoding="UTF-8"?>
<svg width="48px" height="48px" viewBox="0 0 48 48" version="1.1" xmlns="http://www.w3.org/2000/svg" xmlns:xlink="http://www.w3.org/1999/xlink">
    <!-- Generator: Sketch 63.1 (92452) - https://sketch.com -->
    <title>Icons/Mail@1x</title>
    <desc>Created with Sketch.</desc>
    <g id="Icons/Mail" stroke="none" stroke-width="1" fill="none" fill-rule="evenodd">
        <g id="Icon-Shade" transform="translate(14.000000, 16.000000)" fill="#424242" fill-rule="nonzero">
            <g id="Mask">
                <path d="M18,0 L2,0 C0.9,0 0,0.9 0,2 L0,14 C0,15.1 0.9,16 2,16 L18,16 C19.1,16 20,15.1 20,14 L20,2 C20,0.9 19.1,0 18,0 M18,14 L2,14 L2,4 L10,9 L18,4 L18,14 M18,2 L10,7 L2,2 L2,2 L18,2 L18,2 Z" id="Shape"></path>
            </g>
        </g>
    </g>
</svg>