<?xml version="1.0" encoding="UTF-8" standalone="no"?>
<!DOCTYPE svg PUBLIC "-//W3C//DTD SVG 1.1//EN" "http://www.w3.org/Graphics/SVG/1.1/DTD/svg11.dtd">
<svg width="100%" height="100%" viewBox="0 0 48 48" version="1.1" xmlns="http://www.w3.org/2000/svg" xmlns:xlink="http://www.w3.org/1999/xlink" xml:space="preserve" xmlns:serif="http://www.serif.com/" style="fill-rule:evenodd;clip-rule:evenodd;stroke-linejoin:round;stroke-miterlimit:2;">
    <g id="Mask" transform="matrix(1,0,0,1,10,11)">
        <path d="M15.929,21.553C15.929,21.824 15.718,22.05 15.446,22.05L12.554,22.05C12.282,22.05 12.071,21.824 12.071,21.553L12.071,18.69C12.071,18.419 12.282,18.193 12.554,18.193L15.446,18.193C15.718,18.193 15.929,18.419 15.929,18.69L15.929,21.553ZM15.898,15.918C15.883,16.114 15.657,16.264 15.386,16.264L12.599,16.264C12.313,16.264 12.087,16.114 12.087,15.918L11.83,9.032C11.83,8.942 11.876,8.791 11.981,8.716C12.071,8.64 12.207,8.55 12.343,8.55L15.657,8.55C15.793,8.55 15.929,8.64 16.019,8.716C16.124,8.791 16.17,8.912 16.17,9.002L15.898,15.918ZM15.688,1.845C15.356,1.227 14.708,0.836 14,0.836C13.292,0.836 12.644,1.227 12.313,1.845L0.741,23.059C0.41,23.647 0.425,24.37 0.771,24.958C1.118,25.546 1.751,25.907 2.429,25.907L25.571,25.907C26.249,25.907 26.882,25.546 27.229,24.958C27.575,24.37 27.59,23.647 27.259,23.059L15.688,1.845Z" style="fill:rgb(248,202,202);fill-rule:nonzero;"/>
    </g>
</svg>
